<svg xmlns="http://www.w3.org/2000/svg" width="18.465" height="18.351" viewBox="0 0 18.465 18.351"><path fill="#FC6" d="M17.113 6.443V2.08a.973.973 0 0 0-.976-.97h-1.952a1.945 1.945 0 0 1-1.951 1.939 1.945 1.945 0 0 1-1.952-1.939H2.475a.973.973 0 0 0-.976.97v1.939c1.078 0 1.952.868 1.952 1.939 0 1.071-.874 1.94-1.952 1.94v7.758c0 .536.437.97.976.97h9.888a3.358 3.358 0 0 1-.618-1.939c0-1.874 1.529-3.394 3.415-3.394.727 0 1.398.229 1.952.614V8.383a.973.973 0 0 1-.976-.97.974.974 0 0 1 .977-.97zM4.427 14.201a.487.487 0 0 1-.488-.485c0-.268.219-.485.488-.485s.488.217.488.485a.487.487 0 0 1-.488.485zm1.464-7.273c0-1.071.874-1.939 1.952-1.939 1.078 0 1.952.868 1.952 1.939 0 1.071-.874 1.94-1.952 1.94a1.946 1.946 0 0 1-1.952-1.94zm3.415 5.819a.973.973 0 0 1-.976-.97c0-.536.437-.97.976-.97.539 0 .976.434.976.97s-.437.97-.976.97z"/><path fill="#ED7161" d="M0 17.411L17.518 0l.946.94L.946 18.351 0 17.411z"/></svg>