<svg xmlns="http://www.w3.org/2000/svg" width="51.958" height="51.111" viewBox="-0.005 0.681 51.958 51.111"><path fill="#33D0B5" d="M38.678 11.8a1 1 0 0 1-.418-1.909 1.812 1.812 0 0 0-1.509-3.292 1 1 0 0 1-.834-1.818 3.815 3.815 0 0 1 5.053 1.875 3.816 3.816 0 0 1-1.875 5.052.992.992 0 0 1-.417.092z"/><path fill="#33D0B5" d="M44.828 27.22c-1.338 0-2.699-.252-3.737-1.02-2.196-1.628-1.077-5.744.107-10.102.744-2.738 1.764-6.488.962-7.322-.263-.273-.96-.162-1.354-.072a1 1 0 0 1-.447-1.949c1.432-.329 2.522-.115 3.243.635 1.587 1.652.632 5.165-.475 9.233-.82 3.02-1.945 7.156-.846 7.97 1.488 1.105 4.722.479 6.292.022 2.563-10.98 1.469-19.305-2.709-20.331-3.828-.936-5.518 1.732-5.534 1.76a1 1 0 0 1-1.705-1.045c.84-1.367 3.533-3.684 7.716-2.657 5.559 1.365 7.147 10.506 4.046 23.291a1 1 0 0 1-.641.708c-.371.129-2.608.879-4.918.879zM13.271 11.8c-.14 0-.281-.03-.417-.091a3.816 3.816 0 0 1-1.875-5.053 3.79 3.79 0 0 1 2.138-1.984 3.789 3.789 0 0 1 2.915.109 1 1 0 0 1-.834 1.818 1.794 1.794 0 0 0-1.385-.052 1.811 1.811 0 0 0-.125 3.343 1 1 0 0 1-.417 1.91z"/><path fill="#33D0B5" d="M7.12 27.22c-2.309 0-4.546-.75-4.918-.88a.999.999 0 0 1-.641-.708C-1.541 12.848.047 3.706 5.606 2.341c4.183-1.027 6.877 1.289 7.716 2.657a1 1 0 0 1-1.702 1.05c-.081-.126-1.769-2.688-5.537-1.764C1.904 5.309.811 13.636 3.375 24.616c1.608.473 4.792 1.089 6.292-.023 1.099-.814-.025-4.95-.846-7.97-1.107-4.068-2.062-7.581-.475-9.233.721-.75 1.811-.964 3.244-.635a1 1 0 0 1-.447 1.949c-.395-.091-1.093-.202-1.354.072-.802.835.217 4.584.962 7.322 1.185 4.358 2.304 8.474.106 10.102-1.038.768-2.4 1.02-3.737 1.02z"/><path fill="#858585" d="M26.131 29.869c-7.228 0-13.049-9.092-13.049-16.619C13.082 6.554 19.18.681 26.131.681c7.055 0 13.243 5.874 13.243 12.569 0 7.481-6.111 16.619-13.243 16.619zm0-27.188c-5.886 0-11.049 4.939-11.049 10.569 0 7.104 5.679 14.619 11.049 14.619 5.791 0 11.243-8.236 11.243-14.619 0-5.532-5.358-10.569-11.243-10.569z"/><path fill="#858585" d="M37.271 15.354l-.086-.003c-4.132-.351-6.436-3.046-7.598-5.072-3.474 4.909-14.942 5.071-15.497 5.076-.599.01-1.003-.439-1.008-.991a1 1 0 0 1 .991-1.009c3.834-.035 13.909-1.135 14.475-5.747a.998.998 0 0 1 1.953-.154c.064.22 1.658 5.463 6.854 5.904a1 1 0 0 1-.084 1.996zm6.625 36.438H8.562a3.212 3.212 0 0 1-3.208-3.209V45.27c0-7.882 12.422-11.346 14.774-11.931.55-.771 2.06-3.201.831-5.215a.999.999 0 0 1 .333-1.374.998.998 0 0 1 1.375.333c2.226 3.646-1.052 7.621-1.192 7.789a1.005 1.005 0 0 1-.546.332c-.136.03-13.573 3.139-13.573 10.065v3.313a1.21 1.21 0 0 0 1.208 1.209h35.333a1.21 1.21 0 0 0 1.208-1.209v-3.313c0-6.935-13.674-10.034-13.813-10.064a.997.997 0 0 1-.563-.35c-.135-.167-3.275-4.139-1.058-7.772a.999.999 0 1 1 1.707 1.041c-1.236 2.025.18 4.431.718 5.216 2.405.589 15.008 4.052 15.008 11.93v3.313c0 1.77-1.44 3.209-3.208 3.209z"/><path fill="#858585" d="M26.229 42.958c-4.205 0-7.625-3.421-7.625-7.625a1 1 0 1 1 2 0c0 3.102 2.523 5.625 5.625 5.625s5.625-2.523 5.625-5.625a1 1 0 1 1 2 0c0 4.204-3.421 7.625-7.625 7.625z"/></svg>