<svg xmlns="http://www.w3.org/2000/svg" width="45.333" height="49.667" viewBox="0 0 45.333 49.667"><path fill="#858585" d="M22.667 15c-4.136 0-7.5-3.364-7.5-7.5s3.364-7.5 7.5-7.5 7.5 3.364 7.5 7.5-3.364 7.5-7.5 7.5zm0-13c-3.033 0-5.5 2.467-5.5 5.5s2.467 5.5 5.5 5.5c3.032 0 5.5-2.467 5.5-5.5S25.699 2 22.667 2z"/><path fill="#858585" d="M33.5 28a1 1 0 0 1-1-1v-4.533a6.39 6.39 0 0 0-6.384-6.383h-5.888a6.391 6.391 0 0 0-6.384 6.383V27a1 1 0 1 1-2 0v-4.533c0-4.623 3.761-8.383 8.384-8.383h5.888c4.623 0 8.384 3.761 8.384 8.383V27a1 1 0 0 1-1 1z"/><path fill="#33D0B5" d="M44.333 49.667H1a1 1 0 0 1-1-1V36.75a.99.99 0 0 1 .126-.485l5.417-9.75A.998.998 0 0 1 6.417 26h32.5c.363 0 .698.197.874.515l5.416 9.75a.99.99 0 0 1 .126.485v11.917a1 1 0 0 1-1 1zM2 47.667h41.333V37.009L38.328 28H7.005L2 37.009v10.658z"/><path fill="#858585" d="M22.667 23.667a1 1 0 0 1-1-1v-7.583a1 1 0 0 1 2 0v7.583a1 1 0 0 1-1 1zm6.5-2.167h-3.25a1 1 0 1 1 0-2h3.25a1 1 0 1 1 0 2z"/><path fill="#33D0B5" d="M10.75 37.75a3.171 3.171 0 0 1-3.167-3.167v-2.166a1 1 0 0 1 1-1h4.333a1 1 0 0 1 1 1v2.166a3.17 3.17 0 0 1-3.166 3.167zm-1.167-4.333v1.166a1.168 1.168 0 0 0 2.334 0v-1.166H9.583zM32.417 34.5h-13a1 1 0 1 1 0-2h13a1 1 0 1 1 0 2z"/></svg>