<svg xmlns="http://www.w3.org/2000/svg" width="241" height="71" viewBox="0 0 241 71"><path fill="#33D0B5" d="M22.525 69.22c2.198 0 4.365-.109 6.501-.328a33.353 33.353 0 0 0 6.181-1.218 25.579 25.579 0 0 0 5.677-2.482c1.801-1.061 3.464-2.467 4.99-4.215a24.498 24.498 0 0 0 3.8-5.573c1.007-2.029 1.816-4.153 2.427-6.369s1.053-4.48 1.328-6.791c.275-2.31.412-4.59.412-6.838s-.168-4.699-.504-7.353a44.255 44.255 0 0 0-1.74-7.868 34.942 34.942 0 0 0-3.342-7.4 20.317 20.317 0 0 0-5.402-5.948 23.322 23.322 0 0 0-4.716-2.716 25.722 25.722 0 0 0-4.99-1.546 36.263 36.263 0 0 0-5.219-.656c-1.77-.094-3.571-.14-5.402-.14H0V69.22h22.525zm-1.373-5.432H6.226V7.212h14.925c2.747 0 5.463.156 8.149.468 2.686.312 5.006.999 6.959 2.061 2.32 1.249 4.212 2.826 5.677 4.73a24.115 24.115 0 0 1 3.479 6.276 31.081 31.081 0 0 1 1.74 7.212c.305 2.529.458 5.011.458 7.446 0 2.311-.168 4.715-.504 7.213a34.578 34.578 0 0 1-1.74 7.166c-.824 2.279-1.938 4.387-3.342 6.322s-3.205 3.466-5.402 4.59c-2.564 1.374-5.082 2.232-7.554 2.576-2.471.344-5.111.516-7.919.516zm72.794 5.432l7.783-21.169h30.034l7.599 21.169h6.41L120.5 1.78h-7.051L87.536 69.22h6.41zm35.711-26.601h-25.822l12.911-35.406 12.911 35.406zM210.234 71c5.067 0 9.523-.937 13.369-2.81 3.845-1.873 7.05-4.418 9.614-7.634 2.564-3.216 4.502-6.963 5.814-11.24 1.313-4.277 1.969-8.851 1.969-13.722 0-4.933-.656-9.57-1.969-13.91-1.312-4.34-3.265-8.118-5.86-11.334-2.594-3.216-5.829-5.745-9.706-7.587C219.589.921 215.087 0 209.959 0c-4.944 0-9.309.937-13.094 2.81-3.784 1.873-6.958 4.418-9.522 7.634s-4.502 6.978-5.815 11.287c-1.312 4.309-1.968 8.93-1.968 13.863 0 4.871.641 9.445 1.923 13.722 1.281 4.278 3.204 8.024 5.768 11.24 2.564 3.216 5.769 5.76 9.614 7.634 3.846 1.873 8.302 2.81 13.369 2.81zm.092-5.433c-4.335 0-8.043-.812-11.126-2.435-3.082-1.624-5.616-3.809-7.6-6.557-1.983-2.748-3.448-5.932-4.395-9.554-.946-3.622-1.419-7.431-1.419-11.427 0-3.934.473-7.712 1.419-11.334.947-3.622 2.412-6.822 4.395-9.601 1.984-2.779 4.518-5.011 7.6-6.697 3.083-1.686 6.73-2.529 10.942-2.529 3.785 0 7.204.687 10.256 2.061s5.646 3.372 7.783 5.995c2.136 2.623 3.769 5.792 4.899 9.507 1.129 3.715 1.694 7.915 1.694 12.598 0 3.934-.474 7.712-1.42 11.334s-2.411 6.806-4.395 9.554-4.517 4.949-7.6 6.604c-3.082 1.654-6.76 2.481-11.033 2.481z"/></svg>