<svg xmlns="http://www.w3.org/2000/svg" width="98" height="20.434" viewBox="0 0.935 98 20.434"><path fill="#343434" d="M62.88 8.752c1.051 0 1.828-.433 2.331-1.298.371-.642.557-1.425.557-2.35 0-.365-.044-.749-.132-1.151a3.094 3.094 0 0 0-.495-1.123 2.292 2.292 0 0 0-1.185-.882c-.286-.094-.645-.145-1.076-.151h-2.997v6.956h2.997zm-.245-1.208h-1.34v-4.54h1.34c.661 0 1.102.19 1.324.569.222.379.333.923.333 1.63 0 .513-.074.955-.222 1.326-.271.677-.749 1.015-1.435 1.015zm7.74 1.208l.481-1.43h2.563l.448 1.43h1.576L72.98 1.796h-1.642l-2.482 6.956h1.519zm2.638-2.629h-1.765l.897-2.737.868 2.737zm8.873 2.822c.994 0 1.754-.271 2.279-.812.702-.664 1.052-1.62 1.052-2.869 0-1.274-.351-2.231-1.052-2.869-.525-.541-1.285-.812-2.279-.812s-1.754.271-2.279.812c-.705.639-1.057 1.595-1.057 2.869 0 1.249.352 2.205 1.057 2.869.525.542 1.285.812 2.279.812zm0-1.231c-.576 0-1.035-.212-1.378-.637-.343-.425-.514-1.029-.514-1.812s.172-1.387.514-1.812c.343-.425.802-.637 1.378-.637.576 0 1.033.213 1.371.639.338.426.507 1.03.507 1.81 0 .783-.169 1.387-.507 1.812-.338.424-.795.637-1.371.637zM62.465 19.977c.887 0 1.574-.21 2.06-.63.486-.42.729-.948.729-1.583 0-.62-.208-1.093-.623-1.42-.267-.211-.664-.379-1.189-.505l-1.199-.288c-.463-.11-.764-.206-.906-.288a.599.599 0 0 1-.33-.557c0-.27.112-.481.335-.632.223-.151.522-.227.897-.227.337 0 .618.058.845.175.34.176.522.473.548.892h1.397c-.025-.739-.297-1.303-.814-1.692-.518-.389-1.143-.583-1.876-.583-.878 0-1.543.206-1.996.618-.453.412-.68.93-.68 1.553 0 .683.234 1.185.703 1.505.277.192.777.37 1.501.533l.736.165c.431.094.747.203.949.326a.597.597 0 0 1 .302.533c0 .393-.203.662-.609.807-.214.076-.492.113-.835.113-.573 0-.977-.143-1.213-.43-.129-.157-.216-.395-.26-.713H59.55c0 .724.26 1.292.779 1.706.517.415 1.23.622 2.136.622zm9.147 0c1.205 0 2.021-.378 2.449-1.133.23-.412.345-.988.345-1.727v-4.276h-1.477v4.276c0 .478-.057.827-.17 1.048-.176.39-.558.585-1.147.585-.591 0-.975-.195-1.152-.585-.113-.22-.17-.569-.17-1.048v-4.276h-1.477v4.276c0 .739.115 1.315.344 1.727.432.755 1.25 1.133 2.455 1.133zm9.246 0c.887 0 1.574-.21 2.06-.63.486-.42.729-.948.729-1.583 0-.62-.208-1.093-.623-1.42-.268-.211-.664-.379-1.189-.505l-1.199-.288c-.463-.11-.765-.206-.906-.288a.599.599 0 0 1-.33-.557c0-.27.112-.481.335-.632.223-.151.522-.227.897-.227.337 0 .618.058.845.175.34.176.522.473.547.892h1.397c-.025-.739-.297-1.303-.814-1.692-.518-.389-1.143-.583-1.876-.583-.878 0-1.543.206-1.996.618-.453.412-.68.93-.68 1.553 0 .683.234 1.185.703 1.505.277.192.777.37 1.501.533l.736.165c.431.094.747.203.949.326a.597.597 0 0 1 .302.533c0 .393-.203.662-.609.807-.214.076-.492.113-.835.113-.573 0-.977-.143-1.213-.43-.129-.157-.216-.395-.26-.713h-1.387c0 .724.26 1.292.779 1.706.518.415 1.231.622 2.137.622zm7.778-.179v-3.105h2.718v3.105h1.444v-6.956h-1.444v2.652h-2.718v-2.652h-1.439v6.956h1.439zm9.364 0v-6.956h-1.444v6.956H98z"/><path fill="#33D0B5" d="M30.16.962a21.686 21.686 0 0 1 2.008-.007c.671.028 1.317.087 1.936.175l.119.017 5.242 9.697c.157-1.18.407-2.212.673-3.101l.039-.13c.302-.983.753-2.23 1.367-3.663l.083-.192.335.187a27.098 27.098 0 0 1 4.471 3.161c1.447 1.25 2.576 2.459 3.385 3.629l.079.114-.061.125a14.733 14.733 0 0 1-1.839 2.917c-.691.844-1.61 1.744-2.757 2.701l-.176.147-.153-.17a12.078 12.078 0 0 1-1.639-2.3 5.694 5.694 0 0 0-.315 1.066c-.075.425-.111.997-.108 1.714v.054l.502.929-3.408 1.789-4.131-7.66 1.32 8.513-.295.076c-.549.142-1.127.261-1.734.357-.606.096-1.215.166-1.826.208l-.154.011-4.632-8.621 1.341 8.665-.491-.059a39.664 39.664 0 0 1-4.166-.747l-.104-.024-4.225-7.84-.429 5.879.001.011-.442-.314c-1.577-1.12-2.846-2.209-3.806-3.266-.882-.971-1.742-2.174-2.58-3.61-1.214 2.386-2.879 4.145-4.989 5.268C6.65 17.743 4.083 18.223.9 18.112l-.861-.03.754-.417a25.66 25.66 0 0 0 4.566-3.249c1.41-1.244 2.468-2.42 3.177-3.525l-.044-.07c-.935-1.491-1.955-2.716-3.06-3.677l-.072-.062C4.178 6.07 2.661 5.155.811 4.34L0 3.983l.881-.098c2.749-.305 5.378.311 7.88 1.844 2.332 1.428 3.95 2.995 4.849 4.702.209-.286.414-.553.614-.8.274-.339.555-.66.843-.963l.225-.238 1.777 3.256.339-5.364-.001-.002 1.523-1.148.009-.007 1.618-1.099 3.805 7.099-1.257-8.48h.002l-.001-.002.434-.166c.48-.183.944-.356 1.392-.519a15.845 15.845 0 0 1 1.653-.497l.179-.044 4.327 8.021L29.786.989 29.783.98l.377-.018zm-6.39 2.955l1.258 8.489 4.126 7.698-1.34-8.661-4.044-7.526zm6.692-1.678l1.305 8.489 4.688 8.691-1.32-8.514-4.673-8.666zM17.836 7.115l-.338 5.343-.008-.001 2.552 4.676.382-5.216-2.588-4.802zm23.733-1.981l-.01.026a32.564 32.564 0 0 0-.964 2.719 18.988 18.988 0 0 0-.722 3.574l-.011.113-.006-.001 2.532 4.683c.018-.385.051-.717.1-.996.08-.453.246-.965.499-1.537a12.626 12.626 0 0 1-.835-2.269c-.455-1.716-.648-3.82-.583-6.312z"/></svg>