<svg xmlns="http://www.w3.org/2000/svg" width="46.417" height="47.624" viewBox="0 0.097 46.417 47.624"><path fill="#858585" d="M23.208 29.855c-5.699 0-9.679-6.868-10.621-9.654l-.175-.108c-.367-.228-.609-.379-.767-.657-1.366-2.418-1.729-4.352-1.077-5.746a2.913 2.913 0 0 1 1.211-1.316c-.002-1.042.072-3.058.59-5.015.021-.077 2.058-7.262 10.838-7.262s10.818 7.185 10.837 7.258c.519 1.96.594 3.978.591 5.02.417.238.896.642 1.212 1.316.651 1.394.289 3.327-1.078 5.746-.157.278-.399.429-.766.657l-.175.108c-.94 2.785-4.92 9.653-10.62 9.653zm-9.913-11.568l.173.108c.476.295.819.509.946.952.519 1.801 4.036 8.508 8.794 8.508 4.758 0 8.276-6.707 8.794-8.509.128-.443.471-.656.945-.952l.174-.107c1.282-2.333 1.077-3.379.926-3.726a.961.961 0 0 0-.629-.546c-.471-.111-.821-.55-.796-1.033.002-.026.135-2.678-.51-5.111-.063-.228-1.693-5.774-8.905-5.774-7.265 0-8.89 5.72-8.905 5.778-.644 2.429-.511 5.081-.509 5.107a1 1 0 0 1-.817 1.038c-.022.006-.418.111-.607.542-.151.346-.356 1.393.926 3.725z"/><path fill="#858585" d="M23.208 47.721c-12.951 0-22.326-1.985-22.419-2.006A1 1 0 0 1 0 44.69c.49-10.302 6.908-13.501 11.693-15.012 3.709-1.171 5.709-3.099 5.729-3.118a1.001 1.001 0 0 1 1.405 1.424c-.093.092-2.332 2.276-6.532 3.602-4.694 1.482-9.543 4.117-10.241 12.34 2.551.472 10.644 1.796 21.153 1.796 10.508 0 18.602-1.324 21.153-1.796-.697-8.222-5.546-10.857-10.24-12.339-4.201-1.326-6.439-3.511-6.533-3.603a1.001 1.001 0 0 1 1.405-1.424c.021.02 2.02 1.947 5.729 3.119 4.785 1.51 11.203 4.709 11.693 15.011a1 1 0 0 1-.789 1.025c-.091.02-9.465 2.006-22.417 2.006z"/><path fill="#33D0B5" d="M23.568 22.833a1 1 0 0 1-.058-1.998l1.151-.066c4.579-.259 14.107-.796 14.157-3.29.021-1.013-2.306-1.968-3.556-2.255a1.002 1.002 0 0 1-.752-1.197.995.995 0 0 1 1.196-.753c.529.12 5.171 1.26 5.111 4.245-.087 4.346-8.935 4.845-16.045 5.246l-1.146.065c-.018.003-.038.003-.058.003z"/><path fill="#33D0B5" d="M23.569 25c-1.746 0-3.167-1.42-3.167-3.167s1.42-3.167 3.167-3.167c1.746 0 3.167 1.421 3.167 3.167S25.314 25 23.569 25zm0-4.333c-.643 0-1.167.523-1.167 1.167a1.168 1.168 0 1 0 1.167-1.167z"/></svg>