<svg xmlns="http://www.w3.org/2000/svg" width="45" height="42" viewBox="0 0 45 42"><path fill="#33D0B5" d="M44 42H25a1 1 0 0 1-1-1v-9a1 1 0 1 1 2 0v8h17V4c0-1.103-.897-2-2-2H28c-1.103 0-2 .897-2 2v4a1 1 0 1 1-2 0V4c0-2.206 1.794-4 4-4h13c2.206 0 4 1.794 4 4v37a1 1 0 0 1-1 1z"/><path fill="#33D0B5" d="M44 8h-4a1 1 0 1 1 0-2h4a1 1 0 1 1 0 2zm0 3h-4a1 1 0 1 1 0-2h4a1 1 0 1 1 0 2zm0 3h-4a1 1 0 1 1 0-2h4a1 1 0 1 1 0 2zm0 3h-4a1 1 0 1 1 0-2h4a1 1 0 1 1 0 2zM34 36c-1.654 0-3-1.346-3-3a1 1 0 1 1 2 0 1 1 0 0 0 2 0 1 1 0 1 1 2 0c0 1.654-1.346 3-3 3z"/><path fill="#858585" d="M32.182 33H4.818A4.824 4.824 0 0 1 0 28.182V8a1 1 0 0 1 1-1h35a1 1 0 0 1 1 1v20.182A4.823 4.823 0 0 1 32.182 33zM2 9v19.182A2.822 2.822 0 0 0 4.818 31h27.363A2.822 2.822 0 0 0 35 28.182V9H2z"/><path fill="#858585" d="M25 42h-5a1 1 0 0 1-1-1v-8h-2v8a1 1 0 0 1-1 1h-5a1 1 0 1 1 0-2h4v-8a1 1 0 0 1 1-1h4a1 1 0 0 1 1 1v8h4a1 1 0 1 1 0 2zm10-13H2a1 1 0 1 1 0-2h33a1 1 0 1 1 0 2z"/></svg>