<svg xmlns="http://www.w3.org/2000/svg" width="15.613" height="15.526" viewBox="0.093 0 15.613 15.526"><path fill="#ED7161" d="M12.41 4.06s-2.012-.955-2.956 0c-.944.956-.452 6.48-2.956 6.48S1.119 8.713.585 9.045c0 0-.493.208-.493.997 0 .79 2.258 5.483 6.405 5.483s8.376-6.024 8.376-7.976S12.41 4.06 12.41 4.06z"/><path fill="#88C057" d="M15.366.072c-.186-.163-.985 0-.985 0-1.484.473-1.603 2.362-1.603 2.362-1.702.112-3.324 1.626-3.324 1.626 3.578-.274 5.42 3.49 5.42 3.49.446-2.058-.986-4.985-.986-4.985-.08-.959 1.478-1.496 1.478-1.496.457-.349.447-.607 0-.997z"/></svg>