<svg xmlns="http://www.w3.org/2000/svg" width="47" height="45" viewBox="0 0 47 45"><path fill="#858585" d="M17 45H7c-1.654 0-3-1.346-3-3V3c0-1.654 1.346-3 3-3h10c1.654 0 3 1.346 3 3v39c0 1.654-1.346 3-3 3zM7 2c-.551 0-1 .449-1 1v39c0 .552.449 1 1 1h10c.551 0 1-.448 1-1V3c0-.551-.449-1-1-1H7z"/><path fill="#858585" d="M3 42c-1.654 0-3-1.346-3-3V6c0-1.654 1.346-3 3-3a1 1 0 0 1 0 2c-.551 0-1 .449-1 1v33c0 .552.449 1 1 1a1 1 0 1 1 0 2zm41 1H19a1 1 0 1 1 0-2h25a1 1 0 0 0 1-1V5c0-.551-.448-1-1-1H26a1 1 0 1 1 0-2h18c1.654 0 3 1.346 3 3v35c0 1.654-1.346 3-3 3z"/><path fill="#858585" d="M26 4h-7a1 1 0 0 1 0-2h7a1 1 0 1 1 0 2z"/><path fill="#33D0B5" d="M40 13H24a1 1 0 0 1 0-2h16a1 1 0 1 1 0 2z"/><circle fill="#33D0B5" cx="26" cy="19" r="2"/><circle fill="#33D0B5" cx="32" cy="19" r="2"/><circle fill="#33D0B5" cx="38" cy="19" r="2"/><circle fill="#33D0B5" cx="26" cy="25" r="2"/><circle fill="#33D0B5" cx="32" cy="25" r="2"/><circle fill="#33D0B5" cx="38" cy="25" r="2"/><circle fill="#33D0B5" cx="26" cy="31" r="2"/><circle fill="#33D0B5" cx="32" cy="31" r="2"/><circle fill="#33D0B5" cx="38" cy="31" r="2"/></svg>