<svg xmlns="http://www.w3.org/2000/svg" width="47.275" height="49.554" viewBox="0 0.363 47.275 49.554"><path fill="#33D0B5" d="M23.637 44.5c-10.109 0-18.333-8.225-18.333-18.333 0-10.109 8.225-18.333 18.333-18.333S41.97 16.059 41.97 26.167C41.971 36.275 33.746 44.5 23.637 44.5zm0-34.667c-9.006 0-16.333 7.327-16.333 16.333 0 9.006 7.327 16.333 16.333 16.333S39.97 35.172 39.97 26.166c.001-9.005-7.326-16.333-16.333-16.333z"/><path fill="#858585" d="M43.718 15.645a.996.996 0 0 1-.707-.293L32.286 4.627a.999.999 0 0 1 0-1.414c1.891-1.891 3.926-2.85 6.046-2.85 2.121 0 4.228.985 6.093 2.85 3.8 3.8 3.8 8.338 0 12.139a1.003 1.003 0 0 1-.707.293zM34.439 3.952l9.246 9.247c3.094-3.736.957-6.939-.675-8.571-1.033-1.033-2.684-2.264-4.679-2.264-1.313-.001-2.62.532-3.892 1.588z"/><path fill="#858585" d="M43.718 4.92a.999.999 0 0 1-.707-1.707l1.532-1.532a.999.999 0 1 1 1.414 1.414l-1.532 1.532a.999.999 0 0 1-.707.293zM3.557 15.645a.997.997 0 0 1-.707-.293c-3.8-3.801-3.8-8.338 0-12.139C4.714 1.348 6.821.363 8.942.363s4.155.959 6.046 2.85a.999.999 0 0 1 0 1.414L4.264 15.352a1.002 1.002 0 0 1-.707.293zM8.942 2.363c-1.995 0-3.645 1.231-4.678 2.264-1.632 1.632-3.769 4.834-.675 8.571l9.247-9.247c-1.272-1.055-2.579-1.588-3.894-1.588z"/><path fill="#858585" d="M3.558 4.92a.997.997 0 0 1-.707-.293L1.318 3.095a.999.999 0 1 1 1.414-1.414l1.532 1.532a.999.999 0 0 1-.706 1.707zm5.996 44.997a.998.998 0 0 1-.986-1.164l1.083-6.5a.996.996 0 0 1 1.151-.822 1 1 0 0 1 .822 1.15l-.728 4.364 3.56-2.136a1 1 0 1 1 1.029 1.715l-5.417 3.25a.99.99 0 0 1-.514.143zm28.167 0a.997.997 0 0 1-.515-.143l-5.417-3.25a1 1 0 1 1 1.029-1.715l3.56 2.136-.728-4.364a.999.999 0 0 1 .822-1.15.994.994 0 0 1 1.15.822l1.084 6.5a1 1 0 0 1-.985 1.164z"/><path fill="#33D0B5" d="M23.638 13.083a1 1 0 0 1-1-1v-3.25a1 1 0 0 1 2 0v3.25a1 1 0 0 1-1 1zm0 31.417a1 1 0 0 1-1-1v-3.25a1 1 0 1 1 2 0v3.25a1 1 0 0 1-1 1zm17.333-17.333h-3.25a1 1 0 1 1 0-2h3.25a1 1 0 1 1 0 2zm-31.417 0h-3.25a1 1 0 1 1 0-2h3.25a1 1 0 1 1 0 2zm24.042-9.959a.999.999 0 0 1-.707-1.707l2.298-2.298a.999.999 0 1 1 1.414 1.414l-2.298 2.298a.995.995 0 0 1-.707.293zM11.381 39.423a.999.999 0 0 1-.707-1.707l2.298-2.298a.999.999 0 1 1 1.414 1.414l-2.298 2.298a.997.997 0 0 1-.707.293zm24.513 0a.997.997 0 0 1-.707-.293l-2.298-2.298a.999.999 0 1 1 1.414-1.414l2.298 2.298a.999.999 0 0 1-.707 1.707zM13.679 17.208a.997.997 0 0 1-.707-.293l-2.298-2.298a.999.999 0 1 1 1.414-1.414l2.298 2.298a.999.999 0 0 1-.707 1.707zm20.793 12.125a.955.955 0 0 1-.197-.02l-10.833-2.166a1.001 1.001 0 0 1-.698-.533l-4.333-8.667a1 1 0 0 1 1.789-.895l4.115 8.229 10.354 2.07a1 1 0 0 1-.197 1.982z"/><path fill="#858585" d="M23.637 47.75c-11.901 0-21.583-9.682-21.583-21.583S11.736 4.583 23.637 4.583c11.901 0 21.583 9.682 21.583 21.583S35.538 47.75 23.637 47.75zm0-41.167c-10.798 0-19.583 8.785-19.583 19.583 0 10.798 8.785 19.583 19.583 19.583S43.22 36.964 43.22 26.166c.001-10.797-8.784-19.583-19.583-19.583z"/></svg>