<svg xmlns="http://www.w3.org/2000/svg" width="47" height="47" viewBox="0 0 47 47"><path fill="#858585" d="M23.5 47C10.542 47 0 36.458 0 23.5S10.542 0 23.5 0 47 10.542 47 23.5 36.458 47 23.5 47zm0-45C11.645 2 2 11.645 2 23.5S11.645 45 23.5 45 45 35.355 45 23.5 35.355 2 23.5 2z"/><path fill="#858585" d="M25.06 10.5h-.908V4.479l-1.822.669v-.82l2.588-.972h.142V10.5zm13.344 12.006h.679c.426-.007.762-.119 1.006-.337.244-.218.366-.513.366-.884 0-.833-.415-1.25-1.245-1.25-.391 0-.703.112-.938.337-.231.221-.347.516-.347.884h-.903c0-.563.205-1.03.615-1.401.413-.374.938-.562 1.572-.562.671 0 1.196.177 1.577.532.381.355.571.848.571 1.48 0 .309-.101.609-.303.898-.199.29-.47.506-.815.649.391.124.692.329.903.615.215.286.322.636.322 1.05 0 .638-.208 1.144-.625 1.519-.417.374-.959.562-1.626.562-.667 0-1.211-.181-1.631-.542-.417-.361-.625-.838-.625-1.431h.908c0 .374.122.674.366.898.244.225.571.337.981.337.436 0 .77-.114 1.001-.342.231-.228.347-.555.347-.982 0-.413-.127-.731-.381-.952-.254-.221-.62-.335-1.099-.342h-.679v-.736zm-30.851-.131a2.199 2.199 0 0 1-.679.542c-.26.137-.547.205-.859.205-.41 0-.768-.101-1.074-.303a1.974 1.974 0 0 1-.703-.85 2.922 2.922 0 0 1-.249-1.216c0-.475.09-.903.269-1.284.182-.381.439-.672.771-.874a2.19 2.19 0 0 1 1.162-.303c.703 0 1.257.264 1.66.791.407.524.61 1.24.61 2.148v.264c0 1.384-.273 2.394-.82 3.032-.547.635-1.372.96-2.476.977h-.176v-.762h.19c.745-.013 1.318-.207 1.719-.581.401-.376.619-.972.655-1.786zm-1.392 0c.303 0 .581-.093.835-.278.257-.186.444-.415.562-.689v-.361c0-.593-.129-1.074-.386-1.445s-.583-.557-.977-.557c-.397 0-.716.153-.957.459-.241.303-.361.703-.361 1.201 0 .485.116.885.347 1.201.234.313.547.469.937.469zm18.475 12.011v.767h-.166c-.703.013-1.263.221-1.68.625-.417.404-.658.972-.723 1.704.374-.43.885-.645 1.533-.645.619 0 1.112.218 1.479.654.371.436.557.999.557 1.689 0 .732-.2 1.318-.601 1.758-.397.439-.931.659-1.601.659-.68 0-1.232-.26-1.655-.781-.423-.524-.635-1.198-.635-2.021v-.347c0-1.309.278-2.308.835-2.998.56-.693 1.392-1.048 2.495-1.064h.162zm-1.187 3.203c-.309 0-.594.093-.854.278-.26.186-.441.418-.542.698v.332c0 .586.132 1.058.396 1.416.264.358.593.537.986.537.407 0 .726-.15.957-.449.234-.3.352-.692.352-1.177 0-.488-.119-.882-.357-1.182a1.128 1.128 0 0 0-.938-.453z"/><path fill="#33D0B5" d="M23.5 24.914l-9.707-9.707a.999.999 0 1 1 1.414-1.414l8.293 8.293 11.293-11.293a.999.999 0 1 1 1.414 1.414L23.5 24.914z"/><path fill="#33D0B5" d="M23.5 26.5c-1.654 0-3-1.346-3-3s1.346-3 3-3 3 1.346 3 3-1.346 3-3 3zm0-4a1.001 1.001 0 1 0 1 1c0-.551-.448-1-1-1z"/></svg>