<svg xmlns="http://www.w3.org/2000/svg" width="46" height="43" viewBox="0 0 46 43"><path fill="#858585" d="M41 43H3c-1.654 0-3-1.346-3-3V9.571c0-1.409 1-2.643 2.378-2.935L33.412.059a3.005 3.005 0 0 1 2.497.627A2.989 2.989 0 0 1 37 3v5.075a1 1 0 1 1-2 0V3a.988.988 0 0 0-.363-.771.991.991 0 0 0-.827-.21L2.793 8.592c-.46.098-.793.509-.793.979V40c0 .552.449 1 1 1h38a1 1 0 0 0 1-1V30a1 1 0 1 1 2 0v10c0 1.654-1.346 3-3 3z"/><path fill="#858585" d="M43 21a1 1 0 0 1-1-1v-8.925c0-.551-.448-1-1-1H2a1 1 0 0 1 0-2h39c1.654 0 3 1.346 3 3V20a1 1 0 0 1-1 1z"/><path fill="#33D0B5" d="M43 31H31c-1.654 0-3-1.346-3-3v-6c0-1.654 1.346-3 3-3h12c1.654 0 3 1.346 3 3v6c0 1.654-1.346 3-3 3zM31 21c-.552 0-1 .449-1 1v6a1 1 0 0 0 1 1h12a1 1 0 0 0 1-1v-6c0-.551-.448-1-1-1H31z"/><path fill="#33D0B5" d="M35 28c-1.654 0-3-1.346-3-3s1.346-3 3-3 3 1.346 3 3-1.346 3-3 3zm0-4a1 1 0 1 0 0 2 1 1 0 0 0 0-2z"/></svg>