<?xml version="1.0" encoding="UTF-8"?>
<!DOCTYPE svg PUBLIC "-//W3C//DTD SVG 1.1//EN" "http://www.w3.org/Graphics/SVG/1.1/DTD/svg11.dtd">
<svg xmlns="http://www.w3.org/2000/svg">
<symbol id="card" viewBox="0 0 45 33">
    <path fill="#33D0B5" d="M44 10H1a1 1 0 0 1 0-2h43a1 1 0 1 1 0 2zM44 17H1a1 1 0 0 1 0-2h43a1 1 0 1 1 0 2z"/>
    <path fill="#858585" d="M40 33H5c-2.757 0-5-2.243-5-5V5c0-2.757 2.243-5 5-5h35c2.757 0 5 2.243 5 5v23c0 2.757-2.243 5-5 5zM5 2C3.346 2 2 3.346 2 5v23c0 1.654 1.346 3 3 3h35c1.654 0 3-1.346 3-3V5c0-1.654-1.346-3-3-3H5z"/>
    <path fill="#33D0B5" d="M24 11h2v3h-2zM28 11h2v3h-2zM32 11h2v3h-2zM36 11h2v3h-2z"/>
</symbol>
<symbol id="cheese" viewBox="0 0 18.465 18.351">
    <path fill="#FC6" d="M17.113 6.443V2.08a.973.973 0 0 0-.976-.97h-1.952a1.945 1.945 0 0 1-1.951 1.939 1.945 1.945 0 0 1-1.952-1.939H2.475a.973.973 0 0 0-.976.97v1.939c1.078 0 1.952.868 1.952 1.939 0 1.071-.874 1.94-1.952 1.94v7.758c0 .536.437.97.976.97h9.888a3.358 3.358 0 0 1-.618-1.939c0-1.874 1.529-3.394 3.415-3.394.727 0 1.398.229 1.952.614V8.383a.973.973 0 0 1-.976-.97.974.974 0 0 1 .977-.97zM4.427 14.201a.487.487 0 0 1-.488-.485c0-.268.219-.485.488-.485s.488.217.488.485a.487.487 0 0 1-.488.485zm1.464-7.273c0-1.071.874-1.939 1.952-1.939 1.078 0 1.952.868 1.952 1.939 0 1.071-.874 1.94-1.952 1.94a1.946 1.946 0 0 1-1.952-1.94zm3.415 5.819a.973.973 0 0 1-.976-.97c0-.536.437-.97.976-.97.539 0 .976.434.976.97s-.437.97-.976.97z"/>
    <path fill="#ED7161" d="M0 17.411L17.518 0l.946.94L.946 18.351 0 17.411z"/>
</symbol>
<symbol id="children" viewBox="-0.005 0.681 51.958 51.111">
    <path fill="#33D0B5" d="M38.678 11.8a1 1 0 0 1-.418-1.909 1.812 1.812 0 0 0-1.509-3.292 1 1 0 0 1-.834-1.818 3.815 3.815 0 0 1 5.053 1.875 3.816 3.816 0 0 1-1.875 5.052.992.992 0 0 1-.417.092z"/>
    <path fill="#33D0B5" d="M44.828 27.22c-1.338 0-2.699-.252-3.737-1.02-2.196-1.628-1.077-5.744.107-10.102.744-2.738 1.764-6.488.962-7.322-.263-.273-.96-.162-1.354-.072a1 1 0 0 1-.447-1.949c1.432-.329 2.522-.115 3.243.635 1.587 1.652.632 5.165-.475 9.233-.82 3.02-1.945 7.156-.846 7.97 1.488 1.105 4.722.479 6.292.022 2.563-10.98 1.469-19.305-2.709-20.331-3.828-.936-5.518 1.732-5.534 1.76a1 1 0 0 1-1.705-1.045c.84-1.367 3.533-3.684 7.716-2.657 5.559 1.365 7.147 10.506 4.046 23.291a1 1 0 0 1-.641.708c-.371.129-2.608.879-4.918.879zM13.271 11.8c-.14 0-.281-.03-.417-.091a3.816 3.816 0 0 1-1.875-5.053 3.79 3.79 0 0 1 2.138-1.984 3.789 3.789 0 0 1 2.915.109 1 1 0 0 1-.834 1.818 1.794 1.794 0 0 0-1.385-.052 1.811 1.811 0 0 0-.125 3.343 1 1 0 0 1-.417 1.91z"/>
    <path fill="#33D0B5" d="M7.12 27.22c-2.309 0-4.546-.75-4.918-.88a.999.999 0 0 1-.641-.708C-1.541 12.848.047 3.706 5.606 2.341c4.183-1.027 6.877 1.289 7.716 2.657a1 1 0 0 1-1.702 1.05c-.081-.126-1.769-2.688-5.537-1.764C1.904 5.309.811 13.636 3.375 24.616c1.608.473 4.792 1.089 6.292-.023 1.099-.814-.025-4.95-.846-7.97-1.107-4.068-2.062-7.581-.475-9.233.721-.75 1.811-.964 3.244-.635a1 1 0 0 1-.447 1.949c-.395-.091-1.093-.202-1.354.072-.802.835.217 4.584.962 7.322 1.185 4.358 2.304 8.474.106 10.102-1.038.768-2.4 1.02-3.737 1.02z"/>
    <path fill="#858585" d="M26.131 29.869c-7.228 0-13.049-9.092-13.049-16.619C13.082 6.554 19.18.681 26.131.681c7.055 0 13.243 5.874 13.243 12.569 0 7.481-6.111 16.619-13.243 16.619zm0-27.188c-5.886 0-11.049 4.939-11.049 10.569 0 7.104 5.679 14.619 11.049 14.619 5.791 0 11.243-8.236 11.243-14.619 0-5.532-5.358-10.569-11.243-10.569z"/>
    <path fill="#858585" d="M37.271 15.354l-.086-.003c-4.132-.351-6.436-3.046-7.598-5.072-3.474 4.909-14.942 5.071-15.497 5.076-.599.01-1.003-.439-1.008-.991a1 1 0 0 1 .991-1.009c3.834-.035 13.909-1.135 14.475-5.747a.998.998 0 0 1 1.953-.154c.064.22 1.658 5.463 6.854 5.904a1 1 0 0 1-.084 1.996zM43.896 51.792H8.562a3.212 3.212 0 0 1-3.208-3.209V45.27c0-7.882 12.422-11.346 14.774-11.931.55-.771 2.06-3.201.831-5.215a.999.999 0 0 1 .333-1.374.998.998 0 0 1 1.375.333c2.226 3.646-1.052 7.621-1.192 7.789a1.005 1.005 0 0 1-.546.332c-.136.03-13.573 3.139-13.573 10.065v3.313a1.21 1.21 0 0 0 1.208 1.209h35.333a1.21 1.21 0 0 0 1.208-1.209v-3.313c0-6.935-13.674-10.034-13.813-10.064a.997.997 0 0 1-.563-.35c-.135-.167-3.275-4.139-1.058-7.772a.999.999 0 1 1 1.707 1.041c-1.236 2.025.18 4.431.718 5.216 2.405.589 15.008 4.052 15.008 11.93v3.313c0 1.77-1.44 3.209-3.208 3.209z"/>
    <path fill="#858585" d="M26.229 42.958c-4.205 0-7.625-3.421-7.625-7.625a1 1 0 1 1 2 0c0 3.102 2.523 5.625 5.625 5.625s5.625-2.523 5.625-5.625a1 1 0 1 1 2 0c0 4.204-3.421 7.625-7.625 7.625z"/>
</symbol>
<symbol id="courier" viewBox="0 0 45.333 49.667">
    <path fill="#858585" d="M22.667 15c-4.136 0-7.5-3.364-7.5-7.5s3.364-7.5 7.5-7.5 7.5 3.364 7.5 7.5-3.364 7.5-7.5 7.5zm0-13c-3.033 0-5.5 2.467-5.5 5.5s2.467 5.5 5.5 5.5c3.032 0 5.5-2.467 5.5-5.5S25.699 2 22.667 2z"/>
    <path fill="#858585" d="M33.5 28a1 1 0 0 1-1-1v-4.533a6.39 6.39 0 0 0-6.384-6.383h-5.888a6.391 6.391 0 0 0-6.384 6.383V27a1 1 0 1 1-2 0v-4.533c0-4.623 3.761-8.383 8.384-8.383h5.888c4.623 0 8.384 3.761 8.384 8.383V27a1 1 0 0 1-1 1z"/>
    <path fill="#33D0B5" d="M44.333 49.667H1a1 1 0 0 1-1-1V36.75a.99.99 0 0 1 .126-.485l5.417-9.75A.998.998 0 0 1 6.417 26h32.5c.363 0 .698.197.874.515l5.416 9.75a.99.99 0 0 1 .126.485v11.917a1 1 0 0 1-1 1zM2 47.667h41.333V37.009L38.328 28H7.005L2 37.009v10.658z"/>
    <path fill="#858585" d="M22.667 23.667a1 1 0 0 1-1-1v-7.583a1 1 0 0 1 2 0v7.583a1 1 0 0 1-1 1zM29.167 21.5h-3.25a1 1 0 1 1 0-2h3.25a1 1 0 1 1 0 2z"/>
    <path fill="#33D0B5" d="M10.75 37.75a3.171 3.171 0 0 1-3.167-3.167v-2.166a1 1 0 0 1 1-1h4.333a1 1 0 0 1 1 1v2.166a3.17 3.17 0 0 1-3.166 3.167zm-1.167-4.333v1.166a1.168 1.168 0 0 0 2.334 0v-1.166H9.583zM32.417 34.5h-13a1 1 0 1 1 0-2h13a1 1 0 1 1 0 2z"/>
</symbol>
<symbol id="dao" viewBox="0 0 241 71">
    <path fill="#33D0B5" d="M22.525 69.22c2.198 0 4.365-.109 6.501-.328a33.353 33.353 0 0 0 6.181-1.218 25.579 25.579 0 0 0 5.677-2.482c1.801-1.061 3.464-2.467 4.99-4.215a24.498 24.498 0 0 0 3.8-5.573c1.007-2.029 1.816-4.153 2.427-6.369s1.053-4.48 1.328-6.791c.275-2.31.412-4.59.412-6.838s-.168-4.699-.504-7.353a44.255 44.255 0 0 0-1.74-7.868 34.942 34.942 0 0 0-3.342-7.4 20.317 20.317 0 0 0-5.402-5.948 23.322 23.322 0 0 0-4.716-2.716 25.722 25.722 0 0 0-4.99-1.546 36.263 36.263 0 0 0-5.219-.656c-1.77-.094-3.571-.14-5.402-.14H0V69.22h22.525zm-1.373-5.432H6.226V7.212h14.925c2.747 0 5.463.156 8.149.468 2.686.312 5.006.999 6.959 2.061 2.32 1.249 4.212 2.826 5.677 4.73a24.115 24.115 0 0 1 3.479 6.276 31.081 31.081 0 0 1 1.74 7.212c.305 2.529.458 5.011.458 7.446 0 2.311-.168 4.715-.504 7.213a34.578 34.578 0 0 1-1.74 7.166c-.824 2.279-1.938 4.387-3.342 6.322s-3.205 3.466-5.402 4.59c-2.564 1.374-5.082 2.232-7.554 2.576-2.471.344-5.111.516-7.919.516zm72.794 5.432l7.783-21.169h30.034l7.599 21.169h6.41L120.5 1.78h-7.051L87.536 69.22h6.41zm35.711-26.601h-25.822l12.911-35.406 12.911 35.406zM210.234 71c5.067 0 9.523-.937 13.369-2.81 3.845-1.873 7.05-4.418 9.614-7.634 2.564-3.216 4.502-6.963 5.814-11.24 1.313-4.277 1.969-8.851 1.969-13.722 0-4.933-.656-9.57-1.969-13.91-1.312-4.34-3.265-8.118-5.86-11.334-2.594-3.216-5.829-5.745-9.706-7.587C219.589.921 215.087 0 209.959 0c-4.944 0-9.309.937-13.094 2.81-3.784 1.873-6.958 4.418-9.522 7.634s-4.502 6.978-5.815 11.287c-1.312 4.309-1.968 8.93-1.968 13.863 0 4.871.641 9.445 1.923 13.722 1.281 4.278 3.204 8.024 5.768 11.24 2.564 3.216 5.769 5.76 9.614 7.634 3.846 1.873 8.302 2.81 13.369 2.81zm.092-5.433c-4.335 0-8.043-.812-11.126-2.435-3.082-1.624-5.616-3.809-7.6-6.557-1.983-2.748-3.448-5.932-4.395-9.554-.946-3.622-1.419-7.431-1.419-11.427 0-3.934.473-7.712 1.419-11.334.947-3.622 2.412-6.822 4.395-9.601 1.984-2.779 4.518-5.011 7.6-6.697 3.083-1.686 6.73-2.529 10.942-2.529 3.785 0 7.204.687 10.256 2.061s5.646 3.372 7.783 5.995c2.136 2.623 3.769 5.792 4.899 9.507 1.129 3.715 1.694 7.915 1.694 12.598 0 3.934-.474 7.712-1.42 11.334s-2.411 6.806-4.395 9.554-4.517 4.949-7.6 6.604c-3.082 1.654-6.76 2.481-11.033 2.481z"/>
</symbol>
<symbol id="fish" viewBox="0 0 123 299">
    <path d="M.163 118.27a129.93 129.93 0 0 1-.045-12.034 117.54 117.54 0 0 1 1.05-11.6l.102-.713L59.636 62.51c-7.1-.94-13.316-2.44-18.662-4.034l-.78-.235c-5.916-1.812-13.422-4.512-22.047-8.19l-1.158-.496 1.127-2.006c5.17-9.2 11.513-18.13 19.026-26.79C44.668 12.087 51.946 5.324 58.985.475l.69-.475.753.364c6.61 3.195 12.463 6.867 17.556 11.018 5.08 4.14 10.497 9.646 16.257 16.52l.884 1.054-1.023.92A72.866 72.866 0 0 1 80.258 39.7c2.368.923 4.51 1.552 6.419 1.887 2.556.45 6 .667 10.316.648l.327-.002 5.589-3.008 10.768 20.421L67.57 84.4l51.242-7.907.458 1.766c.854 3.29 1.57 6.753 2.151 10.388.579 3.633.997 7.28 1.254 10.943l.064.921-51.894 27.757L123 120.234l-.358 2.944a223.501 223.501 0 0 1-1.869 12.299 237.701 237.701 0 0 1-2.627 12.666l-.148.625-47.188 25.32 35.39 2.573.069-.009-1.892 2.65c-6.744 9.45-13.294 17.053-19.657 22.809-5.843 5.287-13.088 10.44-21.733 15.463 14.364 7.275 24.95 17.25 31.713 29.895 6.473 11.691 9.357 27.076 8.689 46.147l-.181 5.16-2.508-4.52c-5.246-9.453-11.763-18.573-19.554-27.359-7.49-8.447-14.566-14.792-21.219-19.039l-.422.262c-8.97 5.595-16.345 11.705-22.128 18.328l-.375.433c-6.091 7.084-11.596 16.17-16.505 27.261L18.347 299l-.588-5.277c-1.835-16.472 1.872-32.228 11.099-47.222 8.597-13.972 18.025-23.668 28.304-29.057a122.996 122.996 0 0 1-4.814-3.68 98.718 98.718 0 0 1-5.799-5.052l-1.43-1.35 19.598-10.647-32.29-2.032-.015.007-6.907-9.123-.042-.057-6.616-9.698 42.734-22.803-51.044 7.532-.002-.014-.012.006-.998-2.598a633.25 633.25 0 0 1-3.124-8.345c-1.123-3.067-2.121-6.369-2.993-9.904l-.265-1.073 48.282-25.929-51.099 7.819-.05.027-.113-2.26zm6.3 21.804l.101.389a89.946 89.946 0 0 0 2.532 8.149 623.06 623.06 0 0 0 2.703 7.239l.24.63 107.705-57.61-.011-.155c-.226-2.861-.553-5.713-.98-8.555l-.166-1.066a111.049 111.049 0 0 0-1.541-7.879l-.112-.469-110.47 59.327zm16.546 36.757l4.804 7.04 5.406 7.142 82.28-44.148.173-.742a233.627 233.627 0 0 0 2.019-9.733l.258-1.416a225.288 225.288 0 0 0 1.483-9.344l.035-.271-96.458 51.472zm-5.058-20.271l51.1-7.541.001.003 46.337-24.726-52.131 8.031L17.95 156.56zM7.854 116.462l51.095-7.82 52.312-28.094-51.245 7.908-52.162 28.006zm-4.87-10.105c-.122 2.86-.147 5.715-.076 8.566l.027.934 106.883-57.385-8.1-15.36L3.91 95.748l-.017.127a114.66 114.66 0 0 0-.867 9.578l-.042.904zm28.32 141.636c-7.787 12.654-11.484 25.814-11.106 39.512l.014.439.344-.703c4.222-8.571 8.856-15.836 13.905-21.793l.362-.424c6.292-7.318 14.415-14.006 24.364-20.067l.753-.459.751.463c7.131 4.404 14.662 11.086 22.606 20.046 6.675 7.528 12.436 15.304 17.284 23.329l.033.055-.002-.836c-.088-15.648-2.839-28.427-8.233-38.359l-.201-.367c-6.7-12.525-17.308-22.319-31.87-29.394l-.32-.153-.14.078-.056-.039-.308.149c-9.888 4.875-19.066 14.013-27.51 27.446l-.372.595-.298.482zm18.669-40.014l.588.527a98.1 98.1 0 0 0 3.592 3.039 124.58 124.58 0 0 0 5.508 4.177l.361.258.467-.265c8.74-5.002 16.036-10.118 21.887-15.344l.415-.373c5.422-4.906 11.014-11.223 16.77-18.951l.012-.016-49.6 26.948zM37.2 192.121l32.16 2.024-.003.048 28.147-15.292-31.395-2.292-28.91 15.512zM25.278 49.904l.274.11c6.268 2.49 11.752 4.388 16.245 5.728 5.992 1.787 13.157 3.49 21.515 4.327l.68.066-.002.034L92.175 45c-2.32-.105-4.318-.306-5.997-.6-2.725-.48-5.807-1.477-9.253-2.99-4.31 2.072-8.863 3.74-13.658 5.002-10.328 2.72-22.988 3.882-37.99 3.493zm-3.502-2.976l.573.024c16.072.625 29.47-.48 40.184-3.301 10.729-2.826 20.178-7.747 28.364-14.768l.246-.212-.37-.434c-5.038-5.885-9.785-10.666-14.236-14.341l-.37-.304c-4.576-3.729-9.8-7.066-15.676-10.01l-.561-.28-.578.412c-6.294 4.53-12.826 10.662-19.587 18.395l-.452.518C32.576 30.392 26.802 38.37 21.99 46.56l-.214.368z" fill="#33D0B5"/>
</symbol>
<symbol id="logo-grey" viewBox="0 0 98 20.434">
    <g opacity=".3" fill="#343434">
        <path d="M62.88 7.817c1.051 0 1.828-.433 2.331-1.298.371-.642.557-1.425.557-2.35 0-.365-.044-.749-.132-1.151a3.094 3.094 0 0 0-.495-1.123 2.292 2.292 0 0 0-1.185-.882C63.67.919 63.311.868 62.88.862h-2.997v6.956h2.997zm-.245-1.208h-1.34v-4.54h1.34c.661 0 1.102.19 1.324.569.222.379.333.923.333 1.63 0 .513-.074.955-.222 1.326-.271.677-.749 1.015-1.435 1.015zm7.74 1.208l.481-1.43h2.563l.448 1.43h1.576L72.98.861h-1.642l-2.482 6.956h1.519zm2.638-2.628h-1.765l.897-2.737.868 2.737zm8.873 2.822c.994 0 1.754-.271 2.279-.812.702-.664 1.052-1.62 1.052-2.869 0-1.274-.351-2.231-1.052-2.869C83.64.92 82.88.649 81.886.649s-1.754.271-2.279.812c-.705.638-1.057 1.595-1.057 2.869 0 1.249.352 2.205 1.057 2.869.525.541 1.285.812 2.279.812zm0-1.232c-.576 0-1.035-.212-1.378-.637-.343-.425-.514-1.029-.514-1.812s.172-1.387.514-1.812c.343-.425.802-.637 1.378-.637.576 0 1.033.213 1.371.639.338.426.507 1.03.507 1.81 0 .783-.169 1.387-.507 1.812-.338.425-.795.637-1.371.637zM62.465 19.042c.887 0 1.574-.21 2.06-.63.486-.42.729-.948.729-1.583 0-.62-.208-1.093-.623-1.42-.267-.211-.664-.379-1.189-.505l-1.199-.288c-.463-.11-.764-.206-.906-.288a.599.599 0 0 1-.33-.557c0-.271.112-.481.335-.632.223-.151.522-.226.897-.226.337 0 .618.058.845.175.34.176.522.474.548.892h1.397c-.025-.739-.297-1.303-.814-1.692-.518-.389-1.143-.583-1.876-.583-.878 0-1.543.206-1.996.618-.453.412-.68.93-.68 1.553 0 .683.234 1.184.703 1.505.277.192.777.37 1.501.533l.736.165c.431.094.747.203.949.326a.597.597 0 0 1 .302.533c0 .393-.203.662-.609.807-.214.076-.492.113-.835.113-.573 0-.977-.143-1.213-.429-.129-.157-.216-.395-.26-.713H59.55c0 .724.26 1.292.779 1.706.517.414 1.23.62 2.136.62zm9.147 0c1.205 0 2.021-.378 2.449-1.133.23-.412.345-.988.345-1.727v-4.276h-1.477v4.276c0 .478-.057.827-.17 1.048-.176.39-.558.585-1.147.585-.591 0-.975-.195-1.152-.585-.113-.22-.17-.569-.17-1.048v-4.276h-1.477v4.276c0 .739.115 1.315.344 1.727.432.756 1.25 1.133 2.455 1.133zm9.246 0c.887 0 1.574-.21 2.06-.63s.729-.948.729-1.583c0-.62-.208-1.093-.623-1.42-.268-.211-.664-.379-1.189-.505l-1.199-.288c-.463-.11-.765-.206-.906-.288a.599.599 0 0 1-.33-.557c0-.271.112-.481.335-.632.223-.151.522-.226.897-.226.337 0 .618.058.845.175.34.176.522.474.547.892h1.397c-.025-.739-.297-1.303-.814-1.692-.518-.389-1.143-.583-1.876-.583-.878 0-1.543.206-1.996.618-.453.412-.68.93-.68 1.553 0 .683.234 1.184.703 1.505.277.192.777.37 1.501.533l.736.165c.431.094.747.203.949.326a.597.597 0 0 1 .302.533c0 .393-.203.662-.609.807-.214.076-.492.113-.835.113-.573 0-.977-.143-1.213-.429-.129-.157-.216-.395-.26-.713h-1.387c0 .724.26 1.292.779 1.706.518.414 1.231.62 2.137.62zm7.778-.179v-3.105h2.718v3.105h1.444v-6.956h-1.444v2.652h-2.718v-2.652h-1.439v6.956h1.439zm9.364 0v-6.956h-1.444v6.956H98zM30.16.027A21.686 21.686 0 0 1 32.168.02c.671.028 1.317.087 1.936.175l.119.017 5.242 9.697c.157-1.18.407-2.212.673-3.101l.039-.13c.302-.983.753-2.23 1.367-3.663l.083-.192.335.187a27.098 27.098 0 0 1 4.471 3.161c1.447 1.25 2.576 2.459 3.385 3.629l.079.114-.061.125a14.733 14.733 0 0 1-1.839 2.917c-.691.844-1.61 1.744-2.757 2.701l-.176.147-.153-.17a12.078 12.078 0 0 1-1.639-2.3 5.694 5.694 0 0 0-.315 1.066c-.075.425-.111.997-.108 1.714v.054l.502.929-3.408 1.789-4.131-7.66 1.32 8.513-.295.076c-.549.142-1.127.261-1.734.357-.606.096-1.215.166-1.826.208l-.154.011-4.632-8.621 1.341 8.665-.491-.059a39.664 39.664 0 0 1-4.166-.747l-.104-.025-4.225-7.84-.429 5.879.001.011-.442-.314c-1.577-1.12-2.846-2.209-3.806-3.266-.882-.971-1.742-2.174-2.58-3.61-1.214 2.386-2.879 4.145-4.989 5.268C6.65 16.807 4.083 17.286.9 17.176l-.861-.03.754-.417a25.704 25.704 0 0 0 4.566-3.248c1.41-1.244 2.468-2.42 3.177-3.525l-.044-.07c-.935-1.49-1.955-2.716-3.06-3.676l-.072-.063C4.178 5.135 2.661 4.221.811 3.405L0 3.048l.881-.098c2.749-.305 5.378.311 7.88 1.844 2.332 1.428 3.95 2.995 4.849 4.702.209-.286.414-.553.614-.8.274-.339.555-.66.843-.963l.225-.238 1.777 3.256.339-5.364-.001-.002 1.523-1.148.009-.007 1.618-1.099 3.805 7.099-1.257-8.48h.002l-.001-.002.434-.166c.48-.183.944-.356 1.392-.519a15.845 15.845 0 0 1 1.653-.497l.179-.044 4.327 8.021L29.786.054l-.004-.008.378-.019zm-6.39 2.955l1.258 8.489 4.126 7.698-1.34-8.661-4.044-7.526zm6.692-1.677l1.305 8.489 4.688 8.691-1.32-8.514-4.673-8.666zM17.836 6.18l-.338 5.343-.008-.001 2.552 4.676.382-5.216-2.588-4.802zm23.733-1.981l-.01.026a32.564 32.564 0 0 0-.964 2.719 18.988 18.988 0 0 0-.722 3.574l-.011.113-.006-.001 2.532 4.683a8.06 8.06 0 0 1 .1-.997c.08-.453.246-.965.499-1.537a12.654 12.654 0 0 1-.835-2.269c-.455-1.715-.648-3.818-.583-6.311z"/>
    </g>
</symbol>
<symbol id="logo" viewBox="0 0.935 98 20.434">
    <path fill="#343434" d="M62.88 8.752c1.051 0 1.828-.433 2.331-1.298.371-.642.557-1.425.557-2.35 0-.365-.044-.749-.132-1.151a3.094 3.094 0 0 0-.495-1.123 2.292 2.292 0 0 0-1.185-.882c-.286-.094-.645-.145-1.076-.151h-2.997v6.956h2.997zm-.245-1.208h-1.34v-4.54h1.34c.661 0 1.102.19 1.324.569.222.379.333.923.333 1.63 0 .513-.074.955-.222 1.326-.271.677-.749 1.015-1.435 1.015zm7.74 1.208l.481-1.43h2.563l.448 1.43h1.576L72.98 1.796h-1.642l-2.482 6.956h1.519zm2.638-2.629h-1.765l.897-2.737.868 2.737zm8.873 2.822c.994 0 1.754-.271 2.279-.812.702-.664 1.052-1.62 1.052-2.869 0-1.274-.351-2.231-1.052-2.869-.525-.541-1.285-.812-2.279-.812s-1.754.271-2.279.812c-.705.639-1.057 1.595-1.057 2.869 0 1.249.352 2.205 1.057 2.869.525.542 1.285.812 2.279.812zm0-1.231c-.576 0-1.035-.212-1.378-.637-.343-.425-.514-1.029-.514-1.812s.172-1.387.514-1.812c.343-.425.802-.637 1.378-.637.576 0 1.033.213 1.371.639.338.426.507 1.03.507 1.81 0 .783-.169 1.387-.507 1.812-.338.424-.795.637-1.371.637zM62.465 19.977c.887 0 1.574-.21 2.06-.63.486-.42.729-.948.729-1.583 0-.62-.208-1.093-.623-1.42-.267-.211-.664-.379-1.189-.505l-1.199-.288c-.463-.11-.764-.206-.906-.288a.599.599 0 0 1-.33-.557c0-.27.112-.481.335-.632.223-.151.522-.227.897-.227.337 0 .618.058.845.175.34.176.522.473.548.892h1.397c-.025-.739-.297-1.303-.814-1.692-.518-.389-1.143-.583-1.876-.583-.878 0-1.543.206-1.996.618-.453.412-.68.93-.68 1.553 0 .683.234 1.185.703 1.505.277.192.777.37 1.501.533l.736.165c.431.094.747.203.949.326a.597.597 0 0 1 .302.533c0 .393-.203.662-.609.807-.214.076-.492.113-.835.113-.573 0-.977-.143-1.213-.43-.129-.157-.216-.395-.26-.713H59.55c0 .724.26 1.292.779 1.706.517.415 1.23.622 2.136.622zm9.147 0c1.205 0 2.021-.378 2.449-1.133.23-.412.345-.988.345-1.727v-4.276h-1.477v4.276c0 .478-.057.827-.17 1.048-.176.39-.558.585-1.147.585-.591 0-.975-.195-1.152-.585-.113-.22-.17-.569-.17-1.048v-4.276h-1.477v4.276c0 .739.115 1.315.344 1.727.432.755 1.25 1.133 2.455 1.133zm9.246 0c.887 0 1.574-.21 2.06-.63.486-.42.729-.948.729-1.583 0-.62-.208-1.093-.623-1.42-.268-.211-.664-.379-1.189-.505l-1.199-.288c-.463-.11-.765-.206-.906-.288a.599.599 0 0 1-.33-.557c0-.27.112-.481.335-.632.223-.151.522-.227.897-.227.337 0 .618.058.845.175.34.176.522.473.547.892h1.397c-.025-.739-.297-1.303-.814-1.692-.518-.389-1.143-.583-1.876-.583-.878 0-1.543.206-1.996.618-.453.412-.68.93-.68 1.553 0 .683.234 1.185.703 1.505.277.192.777.37 1.501.533l.736.165c.431.094.747.203.949.326a.597.597 0 0 1 .302.533c0 .393-.203.662-.609.807-.214.076-.492.113-.835.113-.573 0-.977-.143-1.213-.43-.129-.157-.216-.395-.26-.713h-1.387c0 .724.26 1.292.779 1.706.518.415 1.231.622 2.137.622zm7.778-.179v-3.105h2.718v3.105h1.444v-6.956h-1.444v2.652h-2.718v-2.652h-1.439v6.956h1.439zm9.364 0v-6.956h-1.444v6.956H98z"/>
    <path fill="#33D0B5" d="M30.16.962a21.686 21.686 0 0 1 2.008-.007c.671.028 1.317.087 1.936.175l.119.017 5.242 9.697c.157-1.18.407-2.212.673-3.101l.039-.13c.302-.983.753-2.23 1.367-3.663l.083-.192.335.187a27.098 27.098 0 0 1 4.471 3.161c1.447 1.25 2.576 2.459 3.385 3.629l.079.114-.061.125a14.733 14.733 0 0 1-1.839 2.917c-.691.844-1.61 1.744-2.757 2.701l-.176.147-.153-.17a12.078 12.078 0 0 1-1.639-2.3 5.694 5.694 0 0 0-.315 1.066c-.075.425-.111.997-.108 1.714v.054l.502.929-3.408 1.789-4.131-7.66 1.32 8.513-.295.076c-.549.142-1.127.261-1.734.357-.606.096-1.215.166-1.826.208l-.154.011-4.632-8.621 1.341 8.665-.491-.059a39.664 39.664 0 0 1-4.166-.747l-.104-.024-4.225-7.84-.429 5.879.001.011-.442-.314c-1.577-1.12-2.846-2.209-3.806-3.266-.882-.971-1.742-2.174-2.58-3.61-1.214 2.386-2.879 4.145-4.989 5.268C6.65 17.743 4.083 18.223.9 18.112l-.861-.03.754-.417a25.66 25.66 0 0 0 4.566-3.249c1.41-1.244 2.468-2.42 3.177-3.525l-.044-.07c-.935-1.491-1.955-2.716-3.06-3.677l-.072-.062C4.178 6.07 2.661 5.155.811 4.34L0 3.983l.881-.098c2.749-.305 5.378.311 7.88 1.844 2.332 1.428 3.95 2.995 4.849 4.702.209-.286.414-.553.614-.8.274-.339.555-.66.843-.963l.225-.238 1.777 3.256.339-5.364-.001-.002 1.523-1.148.009-.007 1.618-1.099 3.805 7.099-1.257-8.48h.002l-.001-.002.434-.166c.48-.183.944-.356 1.392-.519a15.845 15.845 0 0 1 1.653-.497l.179-.044 4.327 8.021L29.786.989 29.783.98l.377-.018zm-6.39 2.955l1.258 8.489 4.126 7.698-1.34-8.661-4.044-7.526zm6.692-1.678l1.305 8.489 4.688 8.691-1.32-8.514-4.673-8.666zM17.836 7.115l-.338 5.343-.008-.001 2.552 4.676.382-5.216-2.588-4.802zm23.733-1.981l-.01.026a32.564 32.564 0 0 0-.964 2.719 18.988 18.988 0 0 0-.722 3.574l-.011.113-.006-.001 2.532 4.683c.018-.385.051-.717.1-.996.08-.453.246-.965.499-1.537a12.626 12.626 0 0 1-.835-2.269c-.455-1.716-.648-3.82-.583-6.312z"/>
</symbol>
<symbol id="manager" viewBox="0 0.097 46.417 47.624">
    <path fill="#858585" d="M23.208 29.855c-5.699 0-9.679-6.868-10.621-9.654l-.175-.108c-.367-.228-.609-.379-.767-.657-1.366-2.418-1.729-4.352-1.077-5.746a2.913 2.913 0 0 1 1.211-1.316c-.002-1.042.072-3.058.59-5.015.021-.077 2.058-7.262 10.838-7.262s10.818 7.185 10.837 7.258c.519 1.96.594 3.978.591 5.02.417.238.896.642 1.212 1.316.651 1.394.289 3.327-1.078 5.746-.157.278-.399.429-.766.657l-.175.108c-.94 2.785-4.92 9.653-10.62 9.653zm-9.913-11.568l.173.108c.476.295.819.509.946.952.519 1.801 4.036 8.508 8.794 8.508 4.758 0 8.276-6.707 8.794-8.509.128-.443.471-.656.945-.952l.174-.107c1.282-2.333 1.077-3.379.926-3.726a.961.961 0 0 0-.629-.546c-.471-.111-.821-.55-.796-1.033.002-.026.135-2.678-.51-5.111-.063-.228-1.693-5.774-8.905-5.774-7.265 0-8.89 5.72-8.905 5.778-.644 2.429-.511 5.081-.509 5.107a1 1 0 0 1-.817 1.038c-.022.006-.418.111-.607.542-.151.346-.356 1.393.926 3.725z"/>
    <path fill="#858585" d="M23.208 47.721c-12.951 0-22.326-1.985-22.419-2.006A1 1 0 0 1 0 44.69c.49-10.302 6.908-13.501 11.693-15.012 3.709-1.171 5.709-3.099 5.729-3.118a1.001 1.001 0 0 1 1.405 1.424c-.093.092-2.332 2.276-6.532 3.602-4.694 1.482-9.543 4.117-10.241 12.34 2.551.472 10.644 1.796 21.153 1.796 10.508 0 18.602-1.324 21.153-1.796-.697-8.222-5.546-10.857-10.24-12.339-4.201-1.326-6.439-3.511-6.533-3.603a1.001 1.001 0 0 1 1.405-1.424c.021.02 2.02 1.947 5.729 3.119 4.785 1.51 11.203 4.709 11.693 15.011a1 1 0 0 1-.789 1.025c-.091.02-9.465 2.006-22.417 2.006z"/>
    <path fill="#33D0B5" d="M23.568 22.833a1 1 0 0 1-.058-1.998l1.151-.066c4.579-.259 14.107-.796 14.157-3.29.021-1.013-2.306-1.968-3.556-2.255a1.002 1.002 0 0 1-.752-1.197.995.995 0 0 1 1.196-.753c.529.12 5.171 1.26 5.111 4.245-.087 4.346-8.935 4.845-16.045 5.246l-1.146.065c-.018.003-.038.003-.058.003z"/>
    <path fill="#33D0B5" d="M23.569 25c-1.746 0-3.167-1.42-3.167-3.167s1.42-3.167 3.167-3.167c1.746 0 3.167 1.421 3.167 3.167S25.314 25 23.569 25zm0-4.333c-.643 0-1.167.523-1.167 1.167a1.168 1.168 0 1 0 1.167-1.167z"/>
</symbol>
<symbol id="pc" viewBox="0 0 45 42">
    <path fill="#33D0B5" d="M44 42H25a1 1 0 0 1-1-1v-9a1 1 0 1 1 2 0v8h17V4c0-1.103-.897-2-2-2H28c-1.103 0-2 .897-2 2v4a1 1 0 1 1-2 0V4c0-2.206 1.794-4 4-4h13c2.206 0 4 1.794 4 4v37a1 1 0 0 1-1 1z"/>
    <path fill="#33D0B5" d="M44 8h-4a1 1 0 1 1 0-2h4a1 1 0 1 1 0 2zM44 11h-4a1 1 0 1 1 0-2h4a1 1 0 1 1 0 2zM44 14h-4a1 1 0 1 1 0-2h4a1 1 0 1 1 0 2zM44 17h-4a1 1 0 1 1 0-2h4a1 1 0 1 1 0 2zM34 36c-1.654 0-3-1.346-3-3a1 1 0 1 1 2 0 1 1 0 0 0 2 0 1 1 0 1 1 2 0c0 1.654-1.346 3-3 3z"/>
    <path fill="#858585" d="M32.182 33H4.818A4.824 4.824 0 0 1 0 28.182V8a1 1 0 0 1 1-1h35a1 1 0 0 1 1 1v20.182A4.823 4.823 0 0 1 32.182 33zM2 9v19.182A2.822 2.822 0 0 0 4.818 31h27.363A2.822 2.822 0 0 0 35 28.182V9H2z"/>
    <path fill="#858585" d="M25 42h-5a1 1 0 0 1-1-1v-8h-2v8a1 1 0 0 1-1 1h-5a1 1 0 1 1 0-2h4v-8a1 1 0 0 1 1-1h4a1 1 0 0 1 1 1v8h4a1 1 0 1 1 0 2zM35 29H2a1 1 0 1 1 0-2h33a1 1 0 1 1 0 2z"/>
</symbol>
<symbol id="pepper" viewBox="0.093 0 15.613 15.526">
    <path fill="#ED7161" d="M12.41 4.06s-2.012-.955-2.956 0c-.944.956-.452 6.48-2.956 6.48S1.119 8.713.585 9.045c0 0-.493.208-.493.997 0 .79 2.258 5.483 6.405 5.483s8.376-6.024 8.376-7.976S12.41 4.06 12.41 4.06z"/>
    <path fill="#88C057" d="M15.366.072c-.186-.163-.985 0-.985 0-1.484.473-1.603 2.362-1.603 2.362-1.702.112-3.324 1.626-3.324 1.626 3.578-.274 5.42 3.49 5.42 3.49.446-2.058-.986-4.985-.986-4.985-.08-.959 1.478-1.496 1.478-1.496.457-.349.447-.607 0-.997z"/>
</symbol>
<symbol id="phone" viewBox="0 0 47 45">
    <path fill="#858585" d="M17 45H7c-1.654 0-3-1.346-3-3V3c0-1.654 1.346-3 3-3h10c1.654 0 3 1.346 3 3v39c0 1.654-1.346 3-3 3zM7 2c-.551 0-1 .449-1 1v39c0 .552.449 1 1 1h10c.551 0 1-.448 1-1V3c0-.551-.449-1-1-1H7z"/>
    <path fill="#858585" d="M3 42c-1.654 0-3-1.346-3-3V6c0-1.654 1.346-3 3-3a1 1 0 0 1 0 2c-.551 0-1 .449-1 1v33c0 .552.449 1 1 1a1 1 0 1 1 0 2zM44 43H19a1 1 0 1 1 0-2h25a1 1 0 0 0 1-1V5c0-.551-.448-1-1-1H26a1 1 0 1 1 0-2h18c1.654 0 3 1.346 3 3v35c0 1.654-1.346 3-3 3z"/>
    <path fill="#858585" d="M26 4h-7a1 1 0 0 1 0-2h7a1 1 0 1 1 0 2z"/>
    <path fill="#33D0B5" d="M40 13H24a1 1 0 0 1 0-2h16a1 1 0 1 1 0 2z"/>
    <circle fill="#33D0B5" cx="26" cy="19" r="2"/>
    <circle fill="#33D0B5" cx="32" cy="19" r="2"/>
    <circle fill="#33D0B5" cx="38" cy="19" r="2"/>
    <circle fill="#33D0B5" cx="26" cy="25" r="2"/>
    <circle fill="#33D0B5" cx="32" cy="25" r="2"/>
    <circle fill="#33D0B5" cx="38" cy="25" r="2"/>
    <circle fill="#33D0B5" cx="26" cy="31" r="2"/>
    <circle fill="#33D0B5" cx="32" cy="31" r="2"/>
    <circle fill="#33D0B5" cx="38" cy="31" r="2"/>
</symbol>
<symbol id="time-icon" viewBox="0 0.363 47.275 49.554">
    <path fill="#33D0B5" d="M23.637 44.5c-10.109 0-18.333-8.225-18.333-18.333 0-10.109 8.225-18.333 18.333-18.333S41.97 16.059 41.97 26.167C41.971 36.275 33.746 44.5 23.637 44.5zm0-34.667c-9.006 0-16.333 7.327-16.333 16.333 0 9.006 7.327 16.333 16.333 16.333S39.97 35.172 39.97 26.166c.001-9.005-7.326-16.333-16.333-16.333z"/>
    <path fill="#858585" d="M43.718 15.645a.996.996 0 0 1-.707-.293L32.286 4.627a.999.999 0 0 1 0-1.414c1.891-1.891 3.926-2.85 6.046-2.85 2.121 0 4.228.985 6.093 2.85 3.8 3.8 3.8 8.338 0 12.139a1.003 1.003 0 0 1-.707.293zM34.439 3.952l9.246 9.247c3.094-3.736.957-6.939-.675-8.571-1.033-1.033-2.684-2.264-4.679-2.264-1.313-.001-2.62.532-3.892 1.588z"/>
    <path fill="#858585" d="M43.718 4.92a.999.999 0 0 1-.707-1.707l1.532-1.532a.999.999 0 1 1 1.414 1.414l-1.532 1.532a.999.999 0 0 1-.707.293zM3.557 15.645a.997.997 0 0 1-.707-.293c-3.8-3.801-3.8-8.338 0-12.139C4.714 1.348 6.821.363 8.942.363s4.155.959 6.046 2.85a.999.999 0 0 1 0 1.414L4.264 15.352a1.002 1.002 0 0 1-.707.293zM8.942 2.363c-1.995 0-3.645 1.231-4.678 2.264-1.632 1.632-3.769 4.834-.675 8.571l9.247-9.247c-1.272-1.055-2.579-1.588-3.894-1.588z"/>
    <path fill="#858585" d="M3.558 4.92a.997.997 0 0 1-.707-.293L1.318 3.095a.999.999 0 1 1 1.414-1.414l1.532 1.532a.999.999 0 0 1-.706 1.707zM9.554 49.917a.998.998 0 0 1-.986-1.164l1.083-6.5a.996.996 0 0 1 1.151-.822 1 1 0 0 1 .822 1.15l-.728 4.364 3.56-2.136a1 1 0 1 1 1.029 1.715l-5.417 3.25a.99.99 0 0 1-.514.143zM37.721 49.917a.997.997 0 0 1-.515-.143l-5.417-3.25a1 1 0 1 1 1.029-1.715l3.56 2.136-.728-4.364a.999.999 0 0 1 .822-1.15.994.994 0 0 1 1.15.822l1.084 6.5a1 1 0 0 1-.985 1.164z"/>
    <path fill="#33D0B5" d="M23.638 13.083a1 1 0 0 1-1-1v-3.25a1 1 0 0 1 2 0v3.25a1 1 0 0 1-1 1zM23.638 44.5a1 1 0 0 1-1-1v-3.25a1 1 0 1 1 2 0v3.25a1 1 0 0 1-1 1zM40.971 27.167h-3.25a1 1 0 1 1 0-2h3.25a1 1 0 1 1 0 2zM9.554 27.167h-3.25a1 1 0 1 1 0-2h3.25a1 1 0 1 1 0 2zM33.596 17.208a.999.999 0 0 1-.707-1.707l2.298-2.298a.999.999 0 1 1 1.414 1.414l-2.298 2.298a.995.995 0 0 1-.707.293zM11.381 39.423a.999.999 0 0 1-.707-1.707l2.298-2.298a.999.999 0 1 1 1.414 1.414l-2.298 2.298a.997.997 0 0 1-.707.293zM35.894 39.423a.997.997 0 0 1-.707-.293l-2.298-2.298a.999.999 0 1 1 1.414-1.414l2.298 2.298a.999.999 0 0 1-.707 1.707zM13.679 17.208a.997.997 0 0 1-.707-.293l-2.298-2.298a.999.999 0 1 1 1.414-1.414l2.298 2.298a.999.999 0 0 1-.707 1.707zM34.472 29.333a.955.955 0 0 1-.197-.02l-10.833-2.166a1.001 1.001 0 0 1-.698-.533l-4.333-8.667a1 1 0 0 1 1.789-.895l4.115 8.229 10.354 2.07a1 1 0 0 1-.197 1.982z"/>
    <path fill="#858585" d="M23.637 47.75c-11.901 0-21.583-9.682-21.583-21.583S11.736 4.583 23.637 4.583c11.901 0 21.583 9.682 21.583 21.583S35.538 47.75 23.637 47.75zm0-41.167c-10.798 0-19.583 8.785-19.583 19.583 0 10.798 8.785 19.583 19.583 19.583S43.22 36.964 43.22 26.166c.001-10.797-8.784-19.583-19.583-19.583z"/>
</symbol>
<symbol id="time" viewBox="0 0 47 47">
    <path fill="#858585" d="M23.5 47C10.542 47 0 36.458 0 23.5S10.542 0 23.5 0 47 10.542 47 23.5 36.458 47 23.5 47zm0-45C11.645 2 2 11.645 2 23.5S11.645 45 23.5 45 45 35.355 45 23.5 35.355 2 23.5 2z"/>
    <path fill="#858585" d="M25.06 10.5h-.908V4.479l-1.822.669v-.82l2.588-.972h.142V10.5zM38.404 22.506h.679c.426-.007.762-.119 1.006-.337.244-.218.366-.513.366-.884 0-.833-.415-1.25-1.245-1.25-.391 0-.703.112-.938.337-.231.221-.347.516-.347.884h-.903c0-.563.205-1.03.615-1.401.413-.374.938-.562 1.572-.562.671 0 1.196.177 1.577.532.381.355.571.848.571 1.48 0 .309-.101.609-.303.898-.199.29-.47.506-.815.649.391.124.692.329.903.615.215.286.322.636.322 1.05 0 .638-.208 1.144-.625 1.519-.417.374-.959.562-1.626.562-.667 0-1.211-.181-1.631-.542-.417-.361-.625-.838-.625-1.431h.908c0 .374.122.674.366.898.244.225.571.337.981.337.436 0 .77-.114 1.001-.342.231-.228.347-.555.347-.982 0-.413-.127-.731-.381-.952-.254-.221-.62-.335-1.099-.342h-.679v-.736zM7.553 22.375a2.199 2.199 0 0 1-.679.542c-.26.137-.547.205-.859.205-.41 0-.768-.101-1.074-.303a1.974 1.974 0 0 1-.703-.85 2.922 2.922 0 0 1-.249-1.216c0-.475.09-.903.269-1.284.182-.381.439-.672.771-.874a2.19 2.19 0 0 1 1.162-.303c.703 0 1.257.264 1.66.791.407.524.61 1.24.61 2.148v.264c0 1.384-.273 2.394-.82 3.032-.547.635-1.372.96-2.476.977h-.176v-.762h.19c.745-.013 1.318-.207 1.719-.581.401-.376.619-.972.655-1.786zm-1.392 0c.303 0 .581-.093.835-.278.257-.186.444-.415.562-.689v-.361c0-.593-.129-1.074-.386-1.445s-.583-.557-.977-.557c-.397 0-.716.153-.957.459-.241.303-.361.703-.361 1.201 0 .485.116.885.347 1.201.234.313.547.469.937.469zM24.636 34.386v.767h-.166c-.703.013-1.263.221-1.68.625-.417.404-.658.972-.723 1.704.374-.43.885-.645 1.533-.645.619 0 1.112.218 1.479.654.371.436.557.999.557 1.689 0 .732-.2 1.318-.601 1.758-.397.439-.931.659-1.601.659-.68 0-1.232-.26-1.655-.781-.423-.524-.635-1.198-.635-2.021v-.347c0-1.309.278-2.308.835-2.998.56-.693 1.392-1.048 2.495-1.064h.162zm-1.187 3.203c-.309 0-.594.093-.854.278-.26.186-.441.418-.542.698v.332c0 .586.132 1.058.396 1.416.264.358.593.537.986.537.407 0 .726-.15.957-.449.234-.3.352-.692.352-1.177 0-.488-.119-.882-.357-1.182a1.128 1.128 0 0 0-.938-.453z"/>
    <path fill="#33D0B5" d="M23.5 24.914l-9.707-9.707a.999.999 0 1 1 1.414-1.414l8.293 8.293 11.293-11.293a.999.999 0 1 1 1.414 1.414L23.5 24.914z"/>
    <path fill="#33D0B5" d="M23.5 26.5c-1.654 0-3-1.346-3-3s1.346-3 3-3 3 1.346 3 3-1.346 3-3 3zm0-4a1.001 1.001 0 1 0 1 1c0-.551-.448-1-1-1z"/>
</symbol>
<symbol id="vegan" viewBox="0.383 0 15.613 15.517">
    <path fill="#88C057" d="M15.995 7.758a2.431 2.431 0 0 0-3.463-2.193l-.007-.003L9.488 7.1a1.472 1.472 0 0 0-.26-.364l2.638-2.597a2.412 2.412 0 0 0 .714-1.715A2.431 2.431 0 0 0 10.141 0c-.802 0-1.508.389-1.952.983A2.433 2.433 0 0 0 6.237 0a2.431 2.431 0 0 0-2.439 2.424c0 .67.273 1.276.715 1.715L7.15 6.735c-.106.106-.19.231-.259.365L3.853 5.561l-.007.003A2.431 2.431 0 0 0 .383 7.758c0 .94.544 1.747 1.332 2.149a2.385 2.385 0 0 0-.356 1.245 2.431 2.431 0 0 0 2.439 2.424c.978 0 1.815-.575 2.204-1.401l.007.001 1.538-3.118c.05.025.101.047.154.066v3.482c0 1.561.473 2.528.553 2.667l.009-.001a.481.481 0 0 0 .901-.242.469.469 0 0 0-.072-.239l.007-.004c-.135-.232-.423-.849-.423-2.182V9.123c.054-.018.106-.038.155-.062l1.538 3.117.007-.001a2.434 2.434 0 0 0 2.204 1.401 2.432 2.432 0 0 0 2.439-2.424c0-.458-.135-.88-.356-1.245a2.418 2.418 0 0 0 1.332-2.151z"/>
</symbol>
<symbol id="wallet" viewBox="0 0 46 43">
    <path fill="#858585" d="M41 43H3c-1.654 0-3-1.346-3-3V9.571c0-1.409 1-2.643 2.378-2.935L33.412.059a3.005 3.005 0 0 1 2.497.627A2.989 2.989 0 0 1 37 3v5.075a1 1 0 1 1-2 0V3a.988.988 0 0 0-.363-.771.991.991 0 0 0-.827-.21L2.793 8.592c-.46.098-.793.509-.793.979V40c0 .552.449 1 1 1h38a1 1 0 0 0 1-1V30a1 1 0 1 1 2 0v10c0 1.654-1.346 3-3 3z"/>
    <path fill="#858585" d="M43 21a1 1 0 0 1-1-1v-8.925c0-.551-.448-1-1-1H2a1 1 0 0 1 0-2h39c1.654 0 3 1.346 3 3V20a1 1 0 0 1-1 1z"/>
    <path fill="#33D0B5" d="M43 31H31c-1.654 0-3-1.346-3-3v-6c0-1.654 1.346-3 3-3h12c1.654 0 3 1.346 3 3v6c0 1.654-1.346 3-3 3zM31 21c-.552 0-1 .449-1 1v6a1 1 0 0 0 1 1h12a1 1 0 0 0 1-1v-6c0-.551-.448-1-1-1H31z"/>
    <path fill="#33D0B5" d="M35 28c-1.654 0-3-1.346-3-3s1.346-3 3-3 3 1.346 3 3-1.346 3-3 3zm0-4a1 1 0 1 0 0 2 1 1 0 0 0 0-2z"/>
</symbol>
</svg>