<svg xmlns="http://www.w3.org/2000/svg" width="33.007" height="27.933" viewBox="0 0 33.007 27.933"><path fill="#33D0B5" d="M17.535 24.156L.164 15.107l.598-2.438 16.72 8.507 14.711-8.507.326 2.709-14.984 8.778z"/><path fill="#343434" d="M5.701 13.752a.76.76 0 1 0 .002-1.518.76.76 0 0 0-.002 1.518zm2.932 1.464a.76.76 0 1 0 .002-1.518.76.76 0 0 0-.002 1.518zm3.039 1.571a.76.76 0 1 0 .002-1.518.76.76 0 0 0-.002 1.518zm2.823 1.409a.76.76 0 1 0 .002-1.518.76.76 0 0 0-.002 1.518zm5.645 0a.76.76 0 1 0 .002-1.518.76.76 0 0 0-.002 1.518zm2.932-1.788a.76.76 0 1 0 .002-1.518.76.76 0 0 0-.002 1.518zm2.551-1.571a.76.76 0 1 0 .002-1.518.76.76 0 0 0-.002 1.518zm2.66-1.464a.76.76 0 1 0 .002-1.518.76.76 0 0 0-.002 1.518zm2.28-1.408a.76.76 0 1 0 .002-1.518.76.76 0 0 0-.002 1.518z"/><path fill="#33D0B5" d="M13.137 5.246c.434-.271.651-.596.651-1.03-.054-.813-.978-1.734-2.117-2.655-2.007.868-4.45 2.006-6.568 2.927 2.117.704 4.288 1.246 5.971 1.246.815 0 1.521-.163 2.063-.488z"/><path fill="#33D0B5" d="M15.743 8.281c1.194 0 2.172-.163 2.823-.596.543-.325.76-.758.76-1.192-.109-1.734-3.692-3.955-6.405-5.473-.271.109-.598.271-.923.434 1.194.921 2.063 1.95 2.117 2.817.054.542-.217.976-.814 1.355-.543.379-1.357.542-2.28.542-1.845 0-4.234-.596-6.514-1.355-.489.216-.923.379-1.303.596 3.8 1.246 9.011 2.872 12.539 2.872z"/><path fill="#33D0B5" d="M21.552 10.448c1.683-.921 2.443-1.95 2.388-3.035-.217-3.089-7.165-6.123-9.499-7.098-.326.163-.651.271-1.085.488 2.768 1.517 6.243 3.793 6.351 5.635.054.596-.271 1.138-.923 1.571-.706.487-1.792.649-3.04.649-3.746 0-9.283-1.734-13.029-3.089a69.81 69.81 0 0 1-1.465.653c3.148 1.409 11.562 4.985 17.045 4.985 1.249-.054 2.389-.271 3.257-.759z"/><path fill="#343434" d="M32.191 6.708C31.649 6.492 19.38 1.453 16.232.152c-.434-.163-.923-.216-1.249-.054 0 0-.055 0-.055.054 2.714 1.083 9.174 4.064 9.391 7.261.109 1.246-.76 2.384-2.552 3.414-.923.488-2.117.704-3.474.704-5.754 0-14.494-3.793-17.425-5.148a18.73 18.73 0 0 1-.216.109c-.705.325-.651.542-.651.922v11.271c0 .597.163.65.38.813 2.497 1.246 15.851 8.02 16.286 8.236.489.27 1.031.325 1.9-.216.76-.488 11.508-7.315 13.951-8.833.326-.216.489-.216.489-.976V7.793c-.11-.542-.218-.867-.816-1.085zM16.503 26.594L.815 18.684V8.281l15.688 7.423v10.89zm15.472-8.724l-13.571 8.507V15.649l13.571-7.153v9.374z"/><path fill="#343434" d="M2.878 12.453a.76.76 0 1 0 .002-1.518.76.76 0 0 0-.002 1.518z"/></svg>