<svg xmlns="http://www.w3.org/2000/svg" width="33.027" height="27.951" viewBox="0 0 33.027 27.951"><g opacity=".3" fill="#343434"><path d="M17.654 24.172L.272 15.117l.598-2.44L17.6 21.19l14.72-8.513.326 2.711-14.992 8.784z"/><path d="M5.812 13.761a.76.76 0 0 0 .761-.759.76.76 0 0 0-1.522 0 .76.76 0 0 0 .761.759zm2.933 1.465a.76.76 0 0 0 0-1.518.76.76 0 0 0-.761.759.76.76 0 0 0 .761.759zm3.042 1.572a.76.76 0 0 0 .761-.759.76.76 0 0 0-1.522 0 .762.762 0 0 0 .761.759zm2.825 1.409a.76.76 0 0 0 .761-.759.76.76 0 0 0-1.522 0 .76.76 0 0 0 .761.759zm5.649 0a.76.76 0 0 0 .761-.759.76.76 0 0 0-1.522 0c0 .42.341.759.761.759zm2.934-1.788a.76.76 0 0 0 .761-.759.76.76 0 0 0-1.522 0c0 .419.34.759.761.759zm2.552-1.573a.76.76 0 0 0 0-1.518.76.76 0 0 0-.761.759.76.76 0 0 0 .761.759zm2.662-1.464a.76.76 0 0 0 .761-.759.76.76 0 0 0-1.522 0 .76.76 0 0 0 .761.759zm2.281-1.41a.76.76 0 0 0 .761-.759.76.76 0 0 0-1.522 0c0 .42.341.759.761.759zM13.254 5.249c.434-.272.652-.596.652-1.03-.054-.814-.978-1.735-2.118-2.656-2.01.867-4.454 2.006-6.574 2.928 2.118.705 4.291 1.247 5.975 1.247.816-.001 1.522-.163 2.065-.489z"/><path d="M15.861 8.286c1.195 0 2.173-.163 2.825-.596.543-.325.761-.759.761-1.193-.109-1.735-3.639-4.012-6.409-5.476-.272.109-.598.272-.923.434 1.195.921 2.064 1.952 2.118 2.819.054.542-.218.976-.815 1.356-.543.379-1.358.542-2.282.542-1.847 0-4.237-.596-6.518-1.356-.436.108-.87.324-1.304.487 3.802 1.356 9.016 2.983 12.547 2.983z"/><path d="M21.673 10.455c1.684-.921 2.445-1.952 2.391-3.037-.218-3.091-7.17-6.127-9.506-7.102-.326.163-.652.272-1.086.488 2.77 1.518 6.247 3.795 6.355 5.639.054.596-.272 1.139-.923 1.572-.708.487-1.794.65-3.043.65-3.748 0-9.289-1.735-13.036-3.091a76.62 76.62 0 0 1-1.467.652c3.15 1.41 11.57 4.988 17.056 4.988 1.25-.054 2.39-.271 3.259-.759z"/><path d="M32.32 6.713c-.543-.217-12.82-5.259-15.97-6.56-.434-.163-.923-.217-1.25-.054 0 0-.054 0-.054.054 2.716 1.084 9.18 4.067 9.397 7.265.109 1.247-.761 2.386-2.553 3.416-.923.488-2.118.705-3.477.705-5.757 0-14.503-3.795-17.436-5.151-.216.054-.271.108-.325.108C0 6.822 0 7.038 0 7.418v11.279c0 .597.163.651.38.814 2.498 1.247 15.861 8.025 16.296 8.241.489.271 1.032.325 1.902-.217.761-.488 11.516-7.32 13.96-8.838.326-.217.489-.217.489-.976V7.799c0-.543-.109-.869-.707-1.086zM16.622 26.612L.923 18.696V8.286l15.698 7.428v10.898zm15.48-8.73l-13.58 8.513V15.659l13.58-7.157v9.38z"/><path d="M2.988 12.461a.76.76 0 0 0 .761-.759.76.76 0 0 0-1.522 0 .76.76 0 0 0 .761.759z"/></g></svg>