<svg xmlns="http://www.w3.org/2000/svg" width="21.463" height="42.688" viewBox="0 0.308 21.463 42.688"><path fill="#333" d="M10.676 11.853c-.113.225 0 .45.169.507.113.169.339.225.564.056 1.298-.957 2.595-2.422 2.426-4.167-.169-1.802-4.852-5.632-1.523-6.927.508-.169.451-1.014-.113-1.014-2.2 0-4.401.732-4.57 3.21-.281 3.435 4.571 4.618 3.047 8.335zm-.959-5.857c-1.693-1.971-1.128-3.604.564-4.28-.339.563-.395 1.295-.113 2.14.226.845.733 1.577 1.241 2.253 1.241 1.577 1.523 3.041.508 4.393 0-.845-.169-1.689-.564-2.422-.395-.789-1.015-1.352-1.636-2.084zM.521 22.158c0 .056.056.056.056.113l.056.056c.056 0 .056.056.113.056h.735c0 .056 1.016.056 1.016 0 5.021 0 17.885.281 17.941.169h.226c.169 0 .282-.113.395-.169.056-.056.056-.113.113-.169.621-1.69.226-2.534-.959-2.872-.451-1.971-.395-4.899-2.764-5.125-2.764-.282-5.755-.113-8.519-.113-1.523 0-3.949-.394-5.416.225-1.467.563-1.636 3.323-1.805 4.899-1.47.171-2.316 1.072-1.188 2.93-.056-.056-.056-.056 0 0zm2.99-6.476c.395-.563.169-.394 1.016-.563 1.467-.225 3.159-.113 4.683-.113 1.862 0 3.724 0 5.585.056 1.185 0 2.031-.169 2.934.62.903.845 1.128 2.196 1.354 3.379-2.257-.113-4.57-.113-6.883-.113-3.159 0-6.375-.113-9.535 0 .113-1.013.338-2.477.846-3.266zm.564 4.28h4.062c1.58 0 3.159-.056 4.739 0 1.41 0 2.821.056 4.288.113.677 0 1.354 0 2.031.056 1.128.056 1.41.394 1.072 1.408-6.375.225-12.694-.225-19.069-.169-.677-1.689 2.257-1.408 2.877-1.408z"/><path fill="#33D0B5" d="M19.252 22.44l-16.926-.169H1.31c.847 5.519 1.524 11.094 2.314 16.669.226 1.408.056 3.21 1.58 3.773.903.338 2.087.169 3.047.169 1.523 0 2.99.056 4.514.056 1.128 0 3.216.338 4.119-.619.959-1.07.959-3.829 1.185-5.181v-.168c.846-4.787 1.41-9.63 2.2-14.417.055-.113-.848-.113-1.017-.113zm-2.087 13.854c-.056.282-.226 1.352-.169 1.07-4.006.619-8.519.282-12.525-.056 0 .056 0 .056 0 0 0-.169-.113-.845-.169-1.014 0-.056 0-.056 0 0 1.693.113 3.442.113 5.134.113.451.113.959.225 1.467.225.451 0 .846-.056 1.241-.169 1.692.056 3.328.112 5.021-.169 0-.057 0-.057 0 0zM6.727 32.689c.113-2.196 2.313-4.224 4.231-5.012.903-.394 2.2-.113 2.99.45.79.62.903 1.633.846 2.534-.056 2.253-1.523 4.787-3.949 5.125-1.918.339-4.231-.9-4.118-3.097zm11.904-6.138c-5.19.338-10.437-.225-15.684 0 0 .169-.113-.901-.169-1.014 5.303-.282 10.663.338 15.967 0 .056-.056-.17 1.239-.114 1.014z"/><path fill="#333" d="M11.861 28.522c-.226 0-.451.056-.621.113-1.298.507-2.482 1.633-3.103 2.872-.677 1.239-.282 2.365.677 2.928.056-.901.395-1.689.959-2.422.903-1.126 1.975-1.914 2.088-3.491zm1.749 3.435c.226-.676.395-1.746.113-2.422a1.554 1.554 0 0 0-.846-.845c-.056.901-.339 1.633-.903 2.365-.903 1.183-2.087 1.971-2.144 3.604v.056c.169.056.395.056.621.056 1.523.058 2.764-1.406 3.159-2.814z"/></svg>