<svg xmlns="http://www.w3.org/2000/svg" width="392" height="161" viewBox="0 0 392 161"><path opacity=".2" fill="#EDEDED" d="M236.943.213A170.788 170.788 0 0 1 252.72.154c5.273.224 10.343.682 15.209 1.375l.935.133 41.181 76.398c1.234-9.294 3.198-17.43 5.289-24.428l.309-1.022c2.375-7.743 5.915-17.568 10.737-28.857l.65-1.516 2.63 1.476c12.062 6.767 23.769 15.069 35.122 24.904 11.372 9.851 20.237 19.378 26.596 28.591l.622.902-.478.987c-4.189 8.652-9.003 16.313-14.444 22.979-5.428 6.65-12.647 13.741-21.659 21.281l-1.382 1.156-1.206-1.339c-5.036-5.591-9.329-11.632-12.878-18.121-1.21 3.1-2.034 5.902-2.474 8.402-.589 3.346-.875 7.853-.849 13.503l.003.428 3.943 7.316-26.773 14.094-32.455-60.351 10.367 67.074-2.315.599c-4.314 1.117-8.854 2.055-13.62 2.815a164.134 164.134 0 0 1-14.347 1.641l-1.207.085-36.391-67.927L234.368 161l-3.859-.469a292.276 292.276 0 0 1-16.124-2.446 311.801 311.801 0 0 1-16.606-3.439l-.819-.193-33.196-61.767-3.373 46.324.012.09-3.475-2.476c-12.389-8.828-22.357-17.401-29.903-25.73-6.931-7.649-13.687-17.131-20.273-28.447-9.538 18.801-22.615 32.657-39.193 41.51-15.327 8.472-35.498 12.248-60.5 11.374l-6.766-.237 5.926-3.283c12.394-6.867 24.35-15.398 35.869-25.595 11.074-9.804 19.393-19.066 24.961-27.775l-.343-.553c-7.335-11.742-15.347-21.394-24.029-28.964l-.567-.491c-9.288-7.974-21.2-15.179-35.74-21.604L0 24.015l6.918-.769c21.596-2.401 42.253 2.45 61.91 14.527 18.317 11.254 31.029 23.594 38.095 37.049a162.056 162.056 0 0 1 4.824-6.301 128.735 128.735 0 0 1 6.624-7.59l1.77-1.872L134.1 84.711l2.664-42.266-.01-.02 11.961-9.042.075-.054 12.713-8.661 29.896 55.937-9.874-66.813.018-.004-.008-.016 3.406-1.305a839.918 839.918 0 0 1 10.941-4.09c4.021-1.47 8.35-2.776 12.985-3.918l1.406-.346 33.994 63.198L234.016.427l-.035-.066 2.962-.148zm-28.586 8.248l-.51.132c-3.787.99-7.348 2.095-10.683 3.314a823.833 823.833 0 0 0-9.49 3.538l-.826.314 75.529 140.98.203-.014a160.35 160.35 0 0 0 11.216-1.284l1.397-.216c3.578-.57 7.021-1.242 10.33-2.017l.615-.147-77.781-144.6zm-48.189 21.657l-9.23 6.288-9.363 7.077 57.88 107.699.972.227c4.184.96 8.438 1.841 12.76 2.642l1.857.339c4.186.75 8.269 1.397 12.25 1.94l.356.047-67.482-126.259zm26.576-6.621l9.886 66.888-.004.001 32.418 60.653L218.515 82.8l-31.771-59.303zm52.57-13.216l10.252 66.881 36.833 68.474-10.368-67.077-36.717-68.278zm13.248-6.375a167.619 167.619 0 0 0-11.23-.1l-1.225.035 75.234 139.904 20.138-10.602L266.471 5.119l-.166-.023c-4.04-.542-8.226-.92-12.558-1.135l-1.185-.055zM66.872 40.975C50.282 30.782 33.029 25.943 15.07 26.439l-.576.017.922.451c11.237 5.527 20.761 11.592 28.572 18.201l.556.474c9.594 8.236 18.361 18.869 26.308 31.89l.602.987-.608.983c-5.773 9.334-14.534 19.191-26.281 29.589-9.869 8.737-20.064 16.279-30.584 22.624l-.072.043 1.096-.002c20.514-.116 37.269-3.717 50.29-10.777l.481-.264C82.197 111.886 95.037 98 104.312 78.941l.202-.419-.104-.183.052-.074-.195-.403c-6.392-12.943-18.372-24.956-35.983-36.01l-.781-.487-.631-.39zm52.46 24.436l-.691.771a127.802 127.802 0 0 0-3.984 4.701 163.115 163.115 0 0 0-5.477 7.21l-.338.473.348.61c6.558 11.441 13.265 20.991 20.116 28.649l.49.544c6.431 7.097 14.713 14.417 24.845 21.951l.021.016-35.33-64.925zm20.79-16.718l-2.654 42.096-.062-.004 20.048 36.844 3.005-41.095-20.337-37.841zm186.452-15.606l-.144.36c-3.266 8.203-5.753 15.383-7.51 21.263-2.342 7.843-4.575 17.222-5.672 28.162l-.088.89-.044-.004 19.887 36.893c.14-3.037.402-5.652.789-7.85.628-3.567 1.936-7.601 3.919-12.112-2.716-5.641-4.902-11.601-6.558-17.878-3.566-13.516-5.089-30.089-4.579-49.724zm3.901-4.584l-.03.75c-.82 21.038.628 38.575 4.327 52.599 3.705 14.044 10.156 26.412 19.361 37.126l.278.323.569-.484c7.716-6.595 13.984-12.809 18.802-18.635l.399-.484c4.888-5.989 9.263-12.828 13.124-20.518l.365-.735-.54-.756c-5.939-8.239-13.977-16.788-24.116-25.639l-.679-.591c-10.181-8.819-20.64-16.377-31.378-22.675l-.482-.281z"/><path fill="#33D0B5" d="M98.525 114.22c2.198 0 4.365-.109 6.501-.328a33.352 33.352 0 0 0 6.181-1.217 25.579 25.579 0 0 0 5.677-2.482c1.801-1.062 3.464-2.467 4.99-4.215a24.504 24.504 0 0 0 3.8-5.574 35.517 35.517 0 0 0 2.427-6.369 45.978 45.978 0 0 0 1.327-6.791c.275-2.31.412-4.59.412-6.838s-.167-4.699-.503-7.353a44.255 44.255 0 0 0-1.74-7.868 34.919 34.919 0 0 0-3.342-7.4 20.317 20.317 0 0 0-5.402-5.948 23.35 23.35 0 0 0-4.716-2.716 25.722 25.722 0 0 0-4.99-1.546 36.276 36.276 0 0 0-5.22-.656c-1.77-.094-3.571-.14-5.402-.14H76v67.44h22.525zm-1.373-5.432H82.227V52.212h14.925c2.747 0 5.463.156 8.149.468 2.686.312 5.005.999 6.959 2.061 2.319 1.249 4.212 2.826 5.677 4.73a24.115 24.115 0 0 1 3.479 6.276c.855 2.279 1.435 4.683 1.74 7.212s.458 5.011.458 7.447c0 2.31-.168 4.715-.504 7.212a34.514 34.514 0 0 1-1.739 7.166 25.46 25.46 0 0 1-3.343 6.323c-1.404 1.936-3.204 3.466-5.402 4.59-2.564 1.373-5.082 2.232-7.554 2.575-2.472.344-5.112.516-7.92.516zm72.794 5.432l7.783-21.169h30.034l7.599 21.169h6.41L196.5 46.78h-7.051l-25.913 67.44h6.41zm35.711-26.601h-25.822l12.911-35.406 12.911 35.406zM286.234 116c5.067 0 9.523-.937 13.369-2.81 3.845-1.873 7.05-4.418 9.614-7.634s4.502-6.963 5.814-11.24c1.313-4.277 1.969-8.852 1.969-13.722 0-4.933-.656-9.57-1.969-13.91-1.312-4.34-3.265-8.118-5.86-11.334-2.594-3.216-5.829-5.745-9.706-7.587-3.876-1.842-8.378-2.763-13.506-2.763-4.944 0-9.309.937-13.094 2.81-3.784 1.873-6.958 4.418-9.522 7.634s-4.502 6.978-5.815 11.287c-1.312 4.309-1.968 8.93-1.968 13.863 0 4.871.641 9.445 1.923 13.722 1.281 4.277 3.204 8.024 5.768 11.24s5.769 5.761 9.614 7.634c3.846 1.873 8.302 2.81 13.369 2.81zm.092-5.433c-4.335 0-8.043-.812-11.126-2.435-3.082-1.624-5.616-3.809-7.6-6.557-1.983-2.747-3.448-5.932-4.395-9.554-.946-3.622-1.419-7.431-1.419-11.427 0-3.934.473-7.712 1.419-11.334.947-3.622 2.412-6.822 4.395-9.601 1.984-2.779 4.518-5.011 7.6-6.697 3.083-1.686 6.73-2.529 10.942-2.529 3.785 0 7.204.687 10.256 2.061 3.052 1.374 5.646 3.372 7.783 5.995 2.136 2.623 3.769 5.792 4.899 9.507 1.129 3.715 1.694 7.915 1.694 12.598 0 3.934-.474 7.712-1.42 11.334s-2.411 6.807-4.395 9.555c-1.984 2.747-4.517 4.948-7.6 6.603-3.082 1.654-6.76 2.481-11.033 2.481z"/></svg>