<svg xmlns="http://www.w3.org/2000/svg" width="26.404" height="29.679" viewBox="0 0.783 26.404 29.679"><g opacity=".3"><path fill="#343434" d="M13.146 30.462c7.229 0 13.089-2.774 13.089-6.195 0-3.421-5.86-6.195-13.089-6.195S.057 20.845.057 24.267c-.001 3.421 5.86 6.195 13.089 6.195z"/><path fill="#343434" d="M26.235 6.978H.056v17.289h26.178V6.978h.001z"/><path fill="#FFF" d="M13.146 12.667c6.637 0 12.017-2.547 12.017-5.688s-5.38-5.688-12.017-5.688S1.129 3.838 1.129 6.979c-.001 3.141 5.38 5.688 12.017 5.688z"/><path fill="#343434" d="M13.147 2.529c3.216 0 6.319.619 8.519 1.633 1.749.845 2.821 1.915 2.821 2.816s-1.072 1.971-2.821 2.816c-2.2 1.07-5.303 1.633-8.519 1.633s-6.262-.619-8.519-1.633c-1.749-.845-2.821-1.915-2.821-2.816s1.072-1.971 2.821-2.816c2.257-1.014 5.36-1.633 8.519-1.633zm0-1.746C5.925.783.058 3.542.058 6.978c0 3.435 5.868 6.195 13.089 6.195s13.089-2.759 13.089-6.195c0-3.435-5.867-6.195-13.089-6.195z"/><path fill="#FFF" d="M9.93 18.466c-5.36 0-9.817-.901-9.873-.901l.056-.282c.056 0 4.739.957 10.268.901 5.078-.056 11.961-.957 15.797-5.069l.226.169c-3.893 4.167-10.832 5.125-15.966 5.181l-.508.001zm10.719 5.294C10.55 23.76.169 22.014.056 22.014l.056-.281c.169 0 14.782 2.478 26.122 1.577v.282a90.224 90.224 0 0 1-5.585.168z"/><path fill="#FFF" d="M22.116 19.255c-5.811 0-10.945-1.352-14.5-2.647C2.99 14.862.056 12.948 0 12.891l.169-.225c.056 0 2.934 1.971 7.617 3.661 4.288 1.577 11.002 3.266 18.449 2.422l.056.282c-1.41.167-2.821.224-4.175.224z"/><path fill="#FFF" d="M3.216 15.313a.845.845 0 1 0 .001-1.69.845.845 0 0 0-.001 1.69zm2.595 4.055a.845.845 0 1 0 .001-1.69.845.845 0 0 0-.001 1.69zm8.181 2.59a.845.845 0 1 0 .001-1.69.845.845 0 0 0-.001 1.69zm10.324 2.309a.845.845 0 1 0 .001-1.69.845.845 0 0 0-.001 1.69zm-2.595-4.28a.845.845 0 1 0 .001-1.69.845.845 0 0 0-.001 1.69zm-5.698 4.28a.845.845 0 1 0 .001-1.69.845.845 0 0 0-.001 1.69zm-7.899-9.292a.845.845 0 1 0 .001-1.69.845.845 0 0 0-.001 1.69zm7.673.901a.845.845 0 1 0 .001-1.69.845.845 0 0 0-.001 1.69zm-6.544 7.715a.845.845 0 1 0 .001-1.69.845.845 0 0 0-.001 1.69zm3.046 3.492a.845.845 0 1 0 .001-1.69.845.845 0 0 0-.001 1.69zm-9.083-5.632a.845.845 0 1 0 .001-1.69.845.845 0 0 0-.001 1.69zm20.198-8.391a.845.845 0 1 0 .001-1.69.845.845 0 0 0-.001 1.69zM4.683 26.182a.845.845 0 1 0 .001-1.69.845.845 0 0 0-.001 1.69zm17.884-9.461a.845.845 0 1 0 .001-1.69.845.845 0 0 0-.001 1.69zm-8.237 2.14a.845.845 0 1 0 .001-1.69.845.845 0 0 0-.001 1.69zm5.699 7.321a.845.845 0 1 0 .001-1.69.845.845 0 0 0-.001 1.69zm-14.5-2.76a.845.845 0 1 0 .001-1.69.845.845 0 0 0-.001 1.69zm4.288-4.28a.845.845 0 1 0 .001-1.69.845.845 0 0 0-.001 1.69zm10.212 3.435a.845.845 0 1 0 .001-1.69.845.845 0 0 0-.001 1.69z"/><path fill="#343434" d="M13.315 9.569c3.521 0 6.375-1.16 6.375-2.591s-2.854-2.591-6.375-2.591S6.94 5.547 6.94 6.978s2.854 2.591 6.375 2.591z"/></g></svg>