<svg xmlns="http://www.w3.org/2000/svg" width="26.46" height="29.679" viewBox="0 0.783 26.46 29.679"><path fill="#343434" d="M13.202 30.462c7.229 0 13.089-2.774 13.089-6.195 0-3.421-5.86-6.195-13.089-6.195S.113 20.845.113 24.267c0 3.421 5.86 6.195 13.089 6.195z"/><path fill="#33D0B5" d="M26.291 6.978H.113v16.613h.056c.621 3.154 6.206 5.632 13.033 5.632 6.657 0 12.186-2.365 12.976-5.463l.113-.056V6.978z"/><path fill="#FFF" d="M13.202 12.667c6.637 0 12.017-2.547 12.017-5.688s-5.38-5.688-12.017-5.688S1.185 3.838 1.185 6.979c0 3.141 5.38 5.688 12.017 5.688z"/><path fill="#343434" d="M13.204 2.529c3.216 0 6.262.619 8.519 1.633 1.749.845 2.821 1.915 2.821 2.816s-1.072 1.971-2.821 2.816c-2.2 1.07-5.303 1.633-8.519 1.633s-6.262-.619-8.519-1.633c-1.75-.845-2.822-1.915-2.822-2.816s1.072-1.971 2.821-2.816c2.257-1.014 5.36-1.633 8.52-1.633zm0-1.746C5.982.783.115 3.542.115 6.978c0 3.435 5.868 6.195 13.089 6.195 7.222 0 13.089-2.759 13.089-6.195 0-3.435-5.868-6.195-13.089-6.195z"/><path fill="#FFF" d="M9.986 18.466c-5.36 0-9.817-.901-9.873-.901l.056-.282c.056 0 4.739.957 10.268.901 5.078-.056 11.961-.957 15.797-5.069l.226.169c-3.893 4.167-10.832 5.125-15.966 5.181l-.508.001zm10.72 5.294c-10.099 0-20.48-1.746-20.593-1.746l.056-.281c.169 0 14.782 2.478 26.122 1.577v.282a90.224 90.224 0 0 1-5.585.168z"/><path fill="#FFF" d="M22.173 19.255c-5.811 0-10.945-1.352-14.5-2.647C2.99 14.918.056 12.948 0 12.948l.169-.225c.056 0 2.934 1.971 7.617 3.66 4.288 1.577 11.002 3.266 18.449 2.422l.056.282a51.073 51.073 0 0 1-4.118.168z"/><path fill="#FFF" d="M3.272 15.313a.845.845 0 1 0 .001-1.69.845.845 0 0 0-.001 1.69zm2.596 4.055a.845.845 0 1 0 .001-1.69.845.845 0 0 0-.001 1.69zm8.18 2.59a.845.845 0 1 0 .001-1.69.845.845 0 0 0-.001 1.69zm10.325 2.309a.845.845 0 1 0 .001-1.69.845.845 0 0 0-.001 1.69zm-2.595-4.28a.845.845 0 1 0 .001-1.69.845.845 0 0 0-.001 1.69zm-5.699 4.28a.845.845 0 1 0 .001-1.69.845.845 0 0 0-.001 1.69zm-7.898-9.292a.845.845 0 1 0 .001-1.69.845.845 0 0 0-.001 1.69zm7.673.901a.845.845 0 1 0 .001-1.69.845.845 0 0 0-.001 1.69zm-6.545 7.715a.845.845 0 1 0 .001-1.69.845.845 0 0 0-.001 1.69zm3.047 3.492a.845.845 0 1 0 .001-1.69.845.845 0 0 0-.001 1.69zm-9.084-5.632a.845.845 0 1 0 .001-1.69.845.845 0 0 0-.001 1.69zM23.47 13.06a.845.845 0 1 0 .001-1.69.845.845 0 0 0-.001 1.69zM4.739 26.182a.845.845 0 1 0 .001-1.69.845.845 0 0 0-.001 1.69zm17.885-9.461a.845.845 0 1 0 .001-1.69.845.845 0 0 0-.001 1.69zm-8.237 2.14a.845.845 0 1 0 .001-1.69.845.845 0 0 0-.001 1.69zm5.698 7.321a.845.845 0 1 0 .001-1.69.845.845 0 0 0-.001 1.69zm-14.5-2.76a.845.845 0 1 0 .001-1.69.845.845 0 0 0-.001 1.69zm4.288-4.28a.845.845 0 1 0 .001-1.69.845.845 0 0 0-.001 1.69zm10.212 3.435a.845.845 0 1 0 .001-1.69.845.845 0 0 0-.001 1.69z"/><path fill="#343434" d="M13.371 9.569c3.521 0 6.375-1.16 6.375-2.591s-2.854-2.591-6.375-2.591-6.375 1.16-6.375 2.591 2.854 2.591 6.375 2.591z"/></svg>