<svg xmlns="http://www.w3.org/2000/svg" width="38.978" height="26.45" viewBox="-0.001 0.528 38.978 26.45"><path fill="#33D0B5" d="M12.057 10.042c-.719.957-1.259 2.154-1.618 3.531 1.08.359 3.776 1.317 6.115 2.872.3-1.077.719-2.154 1.259-3.052-2.039-1.794-5.396-3.171-5.756-3.351zm11.511-4.187c-1.738.239-3.597.539-5.276 1.017 1.379.718 3.537 1.974 4.616 3.231 1.498-.479 3.238-.837 4.915-1.077-1.618-1.616-4.255-3.171-4.255-3.171zm5.575-.42c-1.379 0-2.938.12-4.556.3 1.019.658 2.877 1.915 4.077 3.172a55.645 55.645 0 0 1 5.215-.419c-1.979-1.557-4.257-2.753-4.736-3.053zM15.714 21.352c.12-1.376.3-2.872.66-4.309-2.278-1.556-4.976-2.513-6.115-2.872-.36 1.496-.479 3.052-.54 4.488.96.3 3.658 1.258 5.995 2.693zM31.241 5.495h-.54c1.139.658 2.818 1.735 4.137 2.932 2.338-.06 3.957 0 3.957 0s-3.657-2.692-7.554-2.932zM17.393 7.111c-1.439.419-2.757.957-3.896 1.616-.36.239-.719.479-1.019.778.839.359 3.776 1.616 5.635 3.291.899-1.077 2.338-1.915 4.077-2.574-1.2-1.197-3.598-2.513-4.797-3.111zM15.655 22.07c-2.158-1.437-4.915-2.394-5.995-2.753-.06 2.574.24 4.668.36 5.086.42 1.077 5.695 2.453 5.695 2.453s-.18-2.093-.06-4.786z"/><path fill="#343434" d="M34.058 8.248c-4.796 0-11.929.539-15.467 3.411-5.516 4.548-2.877 15.139-2.877 15.139s2.518.18 5.755.18c4.915 0 11.57-.359 14.207-2.333 4.436-3.231 3.118-16.217 3.118-16.217s-1.978-.18-4.736-.18zm0 1.675c1.259 0 2.398.06 3.177.06.06 1.257.12 3.231 0 5.266-.24 4.189-1.139 7.061-2.518 8.079-1.738 1.257-6.594 2.035-13.249 2.035-1.799 0-3.358-.06-4.377-.12a25.517 25.517 0 0 1-.36-4.248c0-2.574.54-6.103 2.937-8.018 2.341-1.976 7.496-3.054 14.39-3.054z"/><path fill="#33D0B5" d="M13.916.948c-1.739.239-3.598.539-5.276 1.018 1.379.718 3.537 1.974 4.616 3.231 1.498-.479 3.238-.837 4.915-1.077C16.554 2.503 13.916.948 13.916.948zm5.576-.42c-1.379 0-2.937.12-4.556.3 1.019.658 2.877 1.915 4.076 3.172a55.639 55.639 0 0 1 5.216-.419C22.249 1.965 19.971.828 19.492.528zM2.406 5.136c-.72.958-1.259 2.154-1.619 3.53 1.08.359 3.776 1.317 6.115 2.872.3-1.076.719-2.154 1.258-3.052-2.038-1.794-5.394-3.231-5.754-3.35zm5.335-2.932c-1.439.418-2.758.957-3.897 1.616-.359.239-.719.478-1.019.778.84.359 3.777 1.616 5.635 3.29.899-1.077 2.338-1.915 4.076-2.574-1.198-1.196-3.596-2.512-4.795-3.11zM21.589.589h-.54c1.139.658 2.818 1.735 4.137 2.932 2.338-.06 3.957 0 3.957 0S25.486.828 21.589.589zM6.002 17.104C3.844 15.667 1.087 14.71.007 14.351c-.06 2.574.24 4.668.36 5.086.42 1.077 5.695 2.453 5.695 2.453s-.18-2.094-.06-4.786zm.061-.659c.12-1.376.3-2.872.66-4.309C4.444 10.58 1.747 9.623.608 9.264c-.36 1.496-.479 3.052-.54 4.488.96.3 3.656 1.197 5.995 2.693z"/><path fill="#343434" d="M9.66 20.395c-1.738 0-1.259-.06-2.278-.12a25.517 25.517 0 0 1-.36-4.248c0-2.574.54-6.103 2.938-8.018 2.398-1.974 7.493-3.052 14.387-3.052 1.259 0 2.398.06 3.177.06 0 .3.06.06.06.419.599-.06 1.498-.12 1.679.06-.06-1.376-.12-1.974-.12-1.974s-1.978-.18-4.736-.18c-4.796 0-11.929.539-15.467 3.411-5.516 4.548-2.877 15.139-2.877 15.139s.54.18 3.717.18c-.12-.54-.12-1.139-.12-1.677zm20.862-6.642c.66 0 1.199 0 1.618.06.06.598.06 1.616 0 2.633-.12 2.094-.599 3.531-1.259 4.009-.899.658-3.297 1.017-6.654 1.017-.899 0-1.679 0-2.219-.06-.06-.479-.18-1.257-.18-2.154 0-1.317.3-3.052 1.439-4.009 1.26-.958 3.838-1.496 7.255-1.496z"/></svg>