<svg xmlns="http://www.w3.org/2000/svg" width="38.998" height="26.463" viewBox="0 0.118 38.998 26.463"><g opacity=".3" fill="#343434"><path d="M34.076 9.518c1.26 0 2.399.06 3.179.06.06 1.258.12 3.233 0 5.269-.24 4.191-1.14 7.064-2.52 8.083-1.739 1.258-6.598 2.036-13.256 2.036-1.8 0-3.359-.06-4.379-.12a25.534 25.534 0 0 1-.36-4.25c0-2.575.54-6.107 2.938-8.022 2.342-1.978 7.501-3.056 14.398-3.056zm0-1.676c-4.799 0-11.936.539-15.475 3.413-5.519 4.55-2.879 15.147-2.879 15.147s2.52.18 5.758.18c4.918 0 11.576-.359 14.215-2.335 4.439-3.233 3.119-16.225 3.119-16.225s-1.979-.18-4.738-.18z"/><path d="M12.063 9.637c-.72.958-1.26 2.155-1.619 3.533 1.08.359 3.778 1.317 6.118 2.874.3-1.078.72-2.155 1.26-3.053-2.04-1.796-5.398-3.174-5.759-3.354zM23.58 5.448c-1.739.239-3.599.539-5.278 1.017 1.38.719 3.539 1.975 4.618 3.233 1.499-.479 3.239-.838 4.918-1.078-1.619-1.616-4.258-3.172-4.258-3.172zm5.578-.42c-1.38 0-2.94.12-4.559.3 1.02.658 2.879 1.916 4.079 3.173 1.8-.239 3.599-.359 5.218-.419-1.979-1.557-4.258-2.755-4.738-3.054zM15.722 20.953c.12-1.377.3-2.874.66-4.311-2.279-1.556-4.979-2.514-6.118-2.874-.36 1.497-.479 3.053-.54 4.491.96.3 3.66 1.258 5.998 2.694zM31.258 5.088h-.54c1.14.658 2.819 1.736 4.139 2.933 2.339-.06 3.959 0 3.959 0s-3.66-2.694-7.558-2.933zM17.402 6.704c-1.439.419-2.759.958-3.898 1.617-.36.239-.72.479-1.02.778.84.359 3.778 1.617 5.638 3.292.899-1.078 2.339-1.916 4.079-2.575-1.2-1.196-3.6-2.513-4.799-3.112zm-1.739 14.968c-2.159-1.437-4.918-2.395-5.998-2.755-.06 2.575.24 4.67.36 5.089.42 1.078 5.698 2.455 5.698 2.455s-.18-2.095-.06-4.789z"/><path d="M11.704 19.995c-1.739 0-3.299-.06-4.318-.12a25.534 25.534 0 0 1-.36-4.25c0-2.575.54-6.107 2.94-8.022 2.399-1.975 7.497-3.053 14.395-3.053 1.26 0 2.399.06 3.179.06 0 .3.06.658.06 1.017.479-.239 1.08-.3 1.68-.239-.06-1.377-.12-2.275-.12-2.275s-1.98-.18-4.738-.18c-4.798 0-11.936.539-15.475 3.413-5.519 4.55-2.879 15.147-2.879 15.147s2.399.18 5.578.18c-.122-.54-.122-1.139.058-1.678z"/><path d="M13.924.538c-1.74.239-3.6.539-5.278 1.018 1.38.719 3.539 1.975 4.618 3.233 1.499-.479 3.239-.838 4.918-1.078-1.62-1.616-4.258-3.173-4.258-3.173zm5.578-.42c-1.38 0-2.938.12-4.559.3 1.02.658 2.879 1.916 4.078 3.173a55.7 55.7 0 0 1 5.219-.419C22.261 1.556 19.981.418 19.502.118zM2.407 4.729c-.72.958-1.26 2.155-1.619 3.532 1.08.359 3.778 1.317 6.118 2.874.3-1.077.72-2.155 1.259-3.053-2.039-1.797-5.398-3.234-5.758-3.353zm5.338-2.934c-1.44.419-2.759.958-3.899 1.617-.359.239-.72.478-1.02.838.84.359 3.778 1.617 5.638 3.292.899-1.078 2.339-1.916 4.078-2.575-1.199-1.257-3.597-2.574-4.797-3.172zM21.6.179h-.54c1.14.599 2.819 1.677 4.139 2.933 2.339-.06 3.959 0 3.959 0S25.499.418 21.6.179zM6.006 16.703c-2.159-1.437-4.918-2.395-5.998-2.755-.06 2.575.24 4.67.36 5.089.42 1.078 5.698 2.455 5.698 2.455s-.181-2.095-.06-4.789zm.06-.659c.12-1.377.3-2.874.66-4.311-2.28-1.556-4.979-2.514-6.118-2.874-.36 1.437-.54 2.994-.6 4.491 1.02.3 3.718 1.197 6.058 2.694zm24.472-2.694c.66 0 1.199 0 1.619.06.06.599.06 1.617 0 2.634-.12 2.095-.6 3.533-1.26 4.011-.899.658-3.299 1.017-6.657 1.017-.899 0-1.68 0-2.22-.06-.06-.479-.18-1.258-.18-2.155 0-1.317.3-3.053 1.439-4.011 1.261-.957 3.84-1.496 7.259-1.496z"/></g></svg>