<svg xmlns="http://www.w3.org/2000/svg" width="32.939" height="30.024" viewBox="0 0.244 32.939 30.024"><path fill="#343434" d="M9.13 29.04h.058c10.184-1.11 17.207-4.498 20.894-10.165 4.741-7.302 2.165-15.54 2.107-15.89a.706.706 0 0 0-.76-.409.707.707 0 0 0-.41.759c0 .058 2.517 8.062-1.932 14.898-3.511 5.317-10.242 8.587-20.016 9.639-.352.058-.585.351-.527.642.001.293.235.526.586.526z"/><path fill="#33D0B5" d="M31.663 6.257c-3.394 4.908-16.972 7.595-21.83 13.904-.585.817-.293 3.037-.41 5.375-.058 1.811 17.383-3.037 21.948-10.632 1.755-2.98.819-9.407.292-8.647zm-5.969 5.492c.644 0 1.17.409 1.17.993 0 .526-.527.993-1.17.993-.643 0-1.17-.409-1.17-.993-.002-.585.525-.993 1.17-.993zm-1.464 2.57c.644 0 1.17.409 1.17.993 0 .526-.527.993-1.17.993s-1.17-.409-1.17-.993.527-.993 1.17-.993zM11.647 24.951c-.644 0-1.17-.409-1.17-.993 0-.526.527-.993 1.17-.993.644 0 1.17.409 1.17.993-.058.584-.584.993-1.17.993zm.409-3.446c-.644 0-1.17-.409-1.17-.993 0-.526.527-.993 1.17-.993s1.17.409 1.17.993c.001.525-.526.993-1.17.993zm2.692-3.798c.644 0 1.17.409 1.17.993 0 .526-.527.993-1.17.993-.644 0-1.17-.409-1.17-.993 0-.525.527-.993 1.17-.993zm.177 6.369c-.644 0-1.17-.409-1.17-.993 0-.526.527-.993 1.17-.993.644 0 1.17.409 1.17.993s-.527.993-1.17.993zm2.107-1.929c-.644 0-1.17-.409-1.17-.993 0-.526.527-.993 1.17-.993.644 0 1.17.409 1.17.993-.058.526-.527.993-1.17.993zm.409-3.797c-.644 0-1.17-.409-1.17-.993 0-.526.527-.993 1.17-.993.644 0 1.17.409 1.17.993 0 .584-.527.993-1.17.993zm2.809 3.797c-.644 0-1.17-.409-1.17-.993 0-.526.527-.993 1.17-.993.644 0 1.17.409 1.17.993-.057.526-.525.993-1.17.993zm.118-2.804c-.644 0-1.17-.409-1.17-.993 0-.526.527-.993 1.17-.993s1.17.409 1.17.993c0 .526-.527.993-1.17.993zm.233-3.447c-.644 0-1.17-.409-1.17-.993 0-.526.527-.993 1.17-.993.644 0 1.17.409 1.17.993.001.584-.526.993-1.17.993zm2.576 4.382c-.644 0-1.17-.409-1.17-.993 0-.526.527-.993 1.17-.993.643 0 1.17.409 1.17.993s-.527.993-1.17.993zm2.517-1.577c-.644 0-1.17-.409-1.17-.993 0-.526.527-.993 1.17-.993.643 0 1.17.409 1.17.993-.058.525-.527.993-1.17.993zm2.282-2.454c-.644 0-1.17-.409-1.17-.993 0-.526.527-.993 1.17-.993.643 0 1.17.409 1.17.993.001.526-.526.993-1.17.993zm1.171-2.571c-.644 0-1.17-.409-1.17-.993 0-.526.527-.993 1.17-.993.643 0 1.17.409 1.17.993-.059.584-.527.993-1.17.993zm1.463-2.979c-.644 0-1.17-.409-1.17-.993 0-.526.527-.993 1.17-.993.644 0 1.17.409 1.17.993-.058.526-.526.993-1.17.993z"/><path fill="#343434" d="M17.265 12.8c.117-.058.293-.175.41-.233 2.049-1.052 4.156-1.987 6.145-2.979-2.459-3.623-10.534-4.498-11.939-4.616C10.417 6.2 9.306 7.543 8.487 9.004c3.16.407 7.081 1.342 8.778 3.796z"/><path fill="#343434" d="M24.581 9.295c2.224-1.052 4.273-2.103 5.618-3.155-1.697-3.037-6.73-4.557-9.54-5.141-1.872.468-3.921 1.227-6.028 2.278a23.21 23.21 0 0 0-1.756 1.052c2.693.292 9.424 1.402 11.706 4.966z"/><path fill="#343434" d="M22.475.591c2.926.759 6.79 2.278 8.369 5.024.702-.642 1.112-1.227 1.287-1.869.527-2.571-3.57-4.265-9.656-3.155zM6.613 14.261c-.644 3.33-.293 5.959-.293 5.959S.527 22.731 0 26.704c3.921-2.045 4.683-.993 5.033-.409.293.584.352.701 1.112 3.973 1.756-.993 1.054-3.505 1.756-9.23.175-1.227 1.229-2.687 2.926-4.089-.818-1.286-2.399-2.104-4.214-2.688zm4.858 2.22c1.405-1.11 3.161-2.22 5.091-3.272-1.58-2.278-5.443-3.097-8.428-3.388a19.22 19.22 0 0 0-1.287 3.622c1.873.643 3.629 1.577 4.624 3.038z"/></svg>