<svg xmlns="http://www.w3.org/2000/svg" width="32.939" height="30.024" viewBox="0 0.654 32.939 30.024"><g opacity=".3" fill="#343434"><path d="M9.13 29.45h.058c10.184-1.11 17.207-4.498 20.894-10.165 4.741-7.361 2.165-15.598 2.107-15.948a.706.706 0 0 0-.76-.409.707.707 0 0 0-.41.759c0 .058 2.517 8.062-1.932 14.898-3.511 5.317-10.242 8.587-20.016 9.639-.352.058-.585.351-.527.643.001.35.235.583.586.583z"/><path d="M31.663 6.667c-3.394 4.908-16.972 7.595-21.83 13.904-.585.817-.293 3.037-.41 5.375-.058 1.752 17.441-3.037 21.948-10.691 1.755-2.921.819-9.348.292-8.588zm-5.969 5.491c.644 0 1.17.409 1.17.993 0 .526-.527.993-1.17.993-.643 0-1.17-.409-1.17-.993-.002-.584.525-.993 1.17-.993zm-1.464 2.571c.644 0 1.17.409 1.17.993 0 .526-.527.993-1.17.993s-1.17-.409-1.17-.993c0-.584.527-.993 1.17-.993zM11.647 25.361c-.644 0-1.17-.409-1.17-.993 0-.526.527-.993 1.17-.993.644 0 1.17.409 1.17.993-.058.584-.584.993-1.17.993zm.409-3.446c-.644 0-1.17-.409-1.17-.993 0-.526.527-.993 1.17-.993s1.17.409 1.17.993c.001.525-.526.993-1.17.993zm2.692-3.798c.644 0 1.17.409 1.17.993 0 .526-.527.993-1.17.993-.644 0-1.17-.409-1.17-.993 0-.525.527-.993 1.17-.993zm.177 6.368c-.644 0-1.17-.409-1.17-.993 0-.526.527-.993 1.17-.993.644 0 1.17.409 1.17.993s-.527.993-1.17.993zm2.107-1.928c-.644 0-1.17-.409-1.17-.993 0-.526.527-.993 1.17-.993.644 0 1.17.409 1.17.993-.058.526-.527.993-1.17.993zm.409-3.797c-.644 0-1.17-.409-1.17-.993 0-.526.527-.993 1.17-.993.644 0 1.17.409 1.17.993 0 .583-.527.993-1.17.993zm2.809 3.797c-.644 0-1.17-.409-1.17-.993 0-.526.527-.993 1.17-.993s1.17.409 1.17.993c-.057.526-.526.993-1.17.993zm.118-2.804c-.644 0-1.17-.409-1.17-.993 0-.526.527-.993 1.17-.993s1.17.409 1.17.993c0 .526-.527.993-1.17.993zm.233-3.447c-.644 0-1.17-.409-1.17-.993 0-.526.527-.993 1.17-.993s1.17.409 1.17.993c.001.584-.526.993-1.17.993zm2.576 4.382c-.644 0-1.17-.409-1.17-.993 0-.526.527-.993 1.17-.993.643 0 1.17.409 1.17.993s-.527.993-1.17.993zm2.517-1.577c-.644 0-1.17-.409-1.17-.993 0-.526.527-.993 1.17-.993.643 0 1.17.409 1.17.993-.058.525-.527.993-1.17.993zm2.282-2.455c-.644 0-1.17-.409-1.17-.993 0-.526.527-.993 1.17-.993.643 0 1.17.409 1.17.993.001.527-.526.993-1.17.993zm1.171-2.57c-.644 0-1.17-.409-1.17-.993 0-.526.527-.993 1.17-.993.643 0 1.17.409 1.17.993-.059.584-.527.993-1.17.993zm1.463-2.98c-.644 0-1.17-.409-1.17-.993 0-.526.527-.993 1.17-.993.644 0 1.17.409 1.17.993-.058.527-.526.993-1.17.993zM17.265 13.21c.117-.058.293-.175.41-.233 2.049-1.052 4.156-1.987 6.145-2.979C21.361 6.375 13.286 5.5 11.881 5.382 10.417 6.61 9.306 7.953 8.487 9.414c3.16.407 7.081 1.342 8.778 3.796z"/><path d="M24.581 9.705c2.224-1.052 4.273-2.103 5.618-3.155-1.697-3.037-6.73-4.557-9.54-5.141-1.872.468-3.921 1.227-6.028 2.278a23.21 23.21 0 0 0-1.756 1.052c2.693.292 9.424 1.402 11.706 4.966z"/><path d="M22.475 1c2.926.759 6.79 2.278 8.369 5.024.702-.642 1.112-1.227 1.287-1.869.527-2.57-3.57-4.265-9.656-3.155zM6.613 14.671c-.644 3.33-.293 5.959-.293 5.959S.527 23.141 0 27.114c3.921-2.045 4.682-.993 5.033-.409.293.584.352.701 1.112 3.973 1.756-.993 1.054-3.505 1.756-9.23.175-1.227 1.229-2.687 2.926-4.089-.818-1.287-2.399-2.104-4.214-2.688zm4.858 2.22c1.405-1.11 3.161-2.22 5.091-3.272-1.58-2.278-5.443-3.097-8.428-3.388a19.22 19.22 0 0 0-1.287 3.622c1.873.643 3.629 1.577 4.624 3.038z"/></g></svg>